<mxfile host="app.diagrams.net" agent="Mozilla/5.0 (Windows NT 10.0; Win64; x64; rv:133.0) Gecko/20100101 Firefox/133.0" version="25.0.1">
  <diagram id="f4cDoAkVqmNpe1YxjZdH" name="Page-1">
    <mxGraphModel dx="2207" dy="1440" grid="0" gridSize="10" guides="1" tooltips="1" connect="1" arrows="1" fold="1" page="0" pageScale="1" pageWidth="850" pageHeight="1100" background="none" math="0" shadow="0">
      <root>
        <mxCell id="0" />
        <mxCell id="1" parent="0" />
        <mxCell id="3" value="A" style="ellipse;whiteSpace=wrap;html=1;aspect=fixed;fillStyle=auto;rounded=1;" parent="1" vertex="1">
          <mxGeometry x="669.76" y="370" width="30" height="30" as="geometry" />
        </mxCell>
        <mxCell id="5" value="B" style="ellipse;whiteSpace=wrap;html=1;aspect=fixed;fillStyle=auto;rounded=1;" parent="1" vertex="1">
          <mxGeometry x="709.76" y="370" width="30" height="30" as="geometry" />
        </mxCell>
        <mxCell id="6" value="C" style="ellipse;whiteSpace=wrap;html=1;aspect=fixed;fillStyle=auto;rounded=1;" parent="1" vertex="1">
          <mxGeometry x="749.76" y="370" width="30" height="30" as="geometry" />
        </mxCell>
        <mxCell id="7" value="D" style="ellipse;whiteSpace=wrap;html=1;aspect=fixed;fillStyle=auto;rounded=1;" parent="1" vertex="1">
          <mxGeometry x="789.76" y="370" width="30" height="30" as="geometry" />
        </mxCell>
        <mxCell id="8" value="E" style="ellipse;whiteSpace=wrap;html=1;aspect=fixed;fillStyle=auto;rounded=1;" parent="1" vertex="1">
          <mxGeometry x="829.76" y="370" width="30" height="30" as="geometry" />
        </mxCell>
        <mxCell id="9" value="F" style="ellipse;whiteSpace=wrap;html=1;aspect=fixed;fillStyle=auto;rounded=1;" parent="1" vertex="1">
          <mxGeometry x="869.76" y="370" width="30" height="30" as="geometry" />
        </mxCell>
        <mxCell id="10" value="G" style="ellipse;whiteSpace=wrap;html=1;aspect=fixed;fillStyle=auto;rounded=1;" parent="1" vertex="1">
          <mxGeometry x="909.76" y="370" width="30" height="30" as="geometry" />
        </mxCell>
        <mxCell id="11" value="H" style="ellipse;whiteSpace=wrap;html=1;aspect=fixed;fillStyle=auto;rounded=1;" parent="1" vertex="1">
          <mxGeometry x="949.76" y="370" width="30" height="30" as="geometry" />
        </mxCell>
        <mxCell id="12" value="I" style="ellipse;whiteSpace=wrap;html=1;aspect=fixed;fillStyle=auto;rounded=1;" parent="1" vertex="1">
          <mxGeometry x="989.76" y="370" width="30" height="30" as="geometry" />
        </mxCell>
        <mxCell id="13" value="K" style="ellipse;whiteSpace=wrap;html=1;aspect=fixed;fillStyle=auto;rounded=1;" parent="1" vertex="1">
          <mxGeometry x="669.76" y="480" width="30" height="30" as="geometry" />
        </mxCell>
        <mxCell id="14" value="L" style="ellipse;whiteSpace=wrap;html=1;aspect=fixed;fillStyle=auto;rounded=1;" parent="1" vertex="1">
          <mxGeometry x="709.76" y="480" width="30" height="30" as="geometry" />
        </mxCell>
        <mxCell id="15" value="M" style="ellipse;whiteSpace=wrap;html=1;aspect=fixed;fillStyle=auto;rounded=1;" parent="1" vertex="1">
          <mxGeometry x="749.76" y="480" width="30" height="30" as="geometry" />
        </mxCell>
        <mxCell id="16" value="N" style="ellipse;whiteSpace=wrap;html=1;aspect=fixed;fillStyle=auto;rounded=1;" parent="1" vertex="1">
          <mxGeometry x="789.76" y="480" width="30" height="30" as="geometry" />
        </mxCell>
        <mxCell id="17" value="O" style="ellipse;whiteSpace=wrap;html=1;aspect=fixed;fillStyle=auto;rounded=1;" parent="1" vertex="1">
          <mxGeometry x="829.76" y="480" width="30" height="30" as="geometry" />
        </mxCell>
        <mxCell id="18" value="P" style="ellipse;whiteSpace=wrap;html=1;aspect=fixed;fillStyle=auto;rounded=1;" parent="1" vertex="1">
          <mxGeometry x="869.76" y="480" width="30" height="30" as="geometry" />
        </mxCell>
        <mxCell id="19" value="Q" style="ellipse;whiteSpace=wrap;html=1;aspect=fixed;fillStyle=auto;rounded=1;" parent="1" vertex="1">
          <mxGeometry x="909.76" y="480" width="30" height="30" as="geometry" />
        </mxCell>
        <mxCell id="20" value="R" style="ellipse;whiteSpace=wrap;html=1;aspect=fixed;fillStyle=auto;rounded=1;" parent="1" vertex="1">
          <mxGeometry x="949.76" y="480" width="30" height="30" as="geometry" />
        </mxCell>
        <mxCell id="21" value="S" style="ellipse;whiteSpace=wrap;html=1;aspect=fixed;fillStyle=auto;rounded=1;" parent="1" vertex="1">
          <mxGeometry x="989.76" y="480" width="30" height="30" as="geometry" />
        </mxCell>
        <mxCell id="22" value="U" style="ellipse;whiteSpace=wrap;html=1;aspect=fixed;fillStyle=auto;rounded=1;" parent="1" vertex="1">
          <mxGeometry x="659.76" y="620" width="30" height="30" as="geometry" />
        </mxCell>
        <mxCell id="23" value="V" style="ellipse;whiteSpace=wrap;html=1;aspect=fixed;fillStyle=auto;rounded=1;" parent="1" vertex="1">
          <mxGeometry x="699.76" y="620" width="30" height="30" as="geometry" />
        </mxCell>
        <mxCell id="24" value="W" style="ellipse;whiteSpace=wrap;html=1;aspect=fixed;fillStyle=auto;rounded=1;" parent="1" vertex="1">
          <mxGeometry x="739.76" y="620" width="30" height="30" as="geometry" />
        </mxCell>
        <mxCell id="25" value="X" style="ellipse;whiteSpace=wrap;html=1;aspect=fixed;fillStyle=auto;rounded=1;" parent="1" vertex="1">
          <mxGeometry x="779.76" y="620" width="30" height="30" as="geometry" />
        </mxCell>
        <mxCell id="26" value="Y" style="ellipse;whiteSpace=wrap;html=1;aspect=fixed;fillStyle=auto;rounded=1;" parent="1" vertex="1">
          <mxGeometry x="819.76" y="620" width="30" height="30" as="geometry" />
        </mxCell>
        <mxCell id="27" value="Z" style="ellipse;whiteSpace=wrap;html=1;aspect=fixed;fillStyle=auto;rounded=1;" parent="1" vertex="1">
          <mxGeometry x="859.76" y="620" width="30" height="30" as="geometry" />
        </mxCell>
        <mxCell id="28" value="a" style="ellipse;whiteSpace=wrap;html=1;aspect=fixed;fillStyle=auto;rounded=1;" parent="1" vertex="1">
          <mxGeometry x="899.76" y="620" width="30" height="30" as="geometry" />
        </mxCell>
        <mxCell id="29" value="b" style="ellipse;whiteSpace=wrap;html=1;aspect=fixed;fillStyle=auto;rounded=1;" parent="1" vertex="1">
          <mxGeometry x="939.76" y="620" width="30" height="30" as="geometry" />
        </mxCell>
        <mxCell id="30" value="c" style="ellipse;whiteSpace=wrap;html=1;aspect=fixed;fillStyle=auto;rounded=1;" parent="1" vertex="1">
          <mxGeometry x="979.76" y="620" width="30" height="30" as="geometry" />
        </mxCell>
        <mxCell id="31" value="e" style="ellipse;whiteSpace=wrap;html=1;aspect=fixed;fillStyle=auto;rounded=1;" parent="1" vertex="1">
          <mxGeometry x="659.76" y="750" width="30" height="30" as="geometry" />
        </mxCell>
        <mxCell id="32" value="f" style="ellipse;whiteSpace=wrap;html=1;aspect=fixed;fillStyle=auto;rounded=1;" parent="1" vertex="1">
          <mxGeometry x="699.76" y="750" width="30" height="30" as="geometry" />
        </mxCell>
        <mxCell id="33" value="g" style="ellipse;whiteSpace=wrap;html=1;aspect=fixed;fillStyle=auto;rounded=1;" parent="1" vertex="1">
          <mxGeometry x="739.76" y="750" width="30" height="30" as="geometry" />
        </mxCell>
        <mxCell id="34" value="h" style="ellipse;whiteSpace=wrap;html=1;aspect=fixed;fillStyle=auto;rounded=1;" parent="1" vertex="1">
          <mxGeometry x="779.76" y="750" width="30" height="30" as="geometry" />
        </mxCell>
        <mxCell id="35" value="i" style="ellipse;whiteSpace=wrap;html=1;aspect=fixed;fillStyle=auto;rounded=1;" parent="1" vertex="1">
          <mxGeometry x="819.76" y="750" width="30" height="30" as="geometry" />
        </mxCell>
        <mxCell id="36" value="j" style="ellipse;whiteSpace=wrap;html=1;aspect=fixed;fillStyle=auto;rounded=1;" parent="1" vertex="1">
          <mxGeometry x="859.76" y="750" width="30" height="30" as="geometry" />
        </mxCell>
        <mxCell id="37" value="k" style="ellipse;whiteSpace=wrap;html=1;aspect=fixed;fillStyle=auto;rounded=1;" parent="1" vertex="1">
          <mxGeometry x="899.76" y="750" width="30" height="30" as="geometry" />
        </mxCell>
        <mxCell id="38" value="l" style="ellipse;whiteSpace=wrap;html=1;aspect=fixed;fillStyle=auto;rounded=1;" parent="1" vertex="1">
          <mxGeometry x="939.76" y="750" width="30" height="30" as="geometry" />
        </mxCell>
        <mxCell id="39" value="m" style="ellipse;whiteSpace=wrap;html=1;aspect=fixed;fillStyle=auto;rounded=1;" parent="1" vertex="1">
          <mxGeometry x="979.76" y="750" width="30" height="30" as="geometry" />
        </mxCell>
        <mxCell id="40" value="o" style="ellipse;whiteSpace=wrap;html=1;aspect=fixed;fillStyle=auto;rounded=1;" parent="1" vertex="1">
          <mxGeometry x="659.76" y="900" width="30" height="30" as="geometry" />
        </mxCell>
        <mxCell id="41" value="p" style="ellipse;whiteSpace=wrap;html=1;aspect=fixed;fillStyle=auto;rounded=1;" parent="1" vertex="1">
          <mxGeometry x="699.76" y="900" width="30" height="30" as="geometry" />
        </mxCell>
        <mxCell id="42" value="q" style="ellipse;whiteSpace=wrap;html=1;aspect=fixed;fillStyle=auto;rounded=1;" parent="1" vertex="1">
          <mxGeometry x="739.76" y="900" width="30" height="30" as="geometry" />
        </mxCell>
        <mxCell id="43" value="r" style="ellipse;whiteSpace=wrap;html=1;aspect=fixed;fillStyle=auto;rounded=1;" parent="1" vertex="1">
          <mxGeometry x="779.76" y="900" width="30" height="30" as="geometry" />
        </mxCell>
        <mxCell id="44" value="s" style="ellipse;whiteSpace=wrap;html=1;aspect=fixed;fillStyle=auto;rounded=1;" parent="1" vertex="1">
          <mxGeometry x="819.76" y="900" width="30" height="30" as="geometry" />
        </mxCell>
        <mxCell id="45" value="t" style="ellipse;whiteSpace=wrap;html=1;aspect=fixed;fillStyle=auto;rounded=1;" parent="1" vertex="1">
          <mxGeometry x="859.76" y="900" width="30" height="30" as="geometry" />
        </mxCell>
        <mxCell id="46" value="u" style="ellipse;whiteSpace=wrap;html=1;aspect=fixed;fillStyle=auto;rounded=1;" parent="1" vertex="1">
          <mxGeometry x="899.76" y="900" width="30" height="30" as="geometry" />
        </mxCell>
        <mxCell id="47" value="v" style="ellipse;whiteSpace=wrap;html=1;aspect=fixed;fillStyle=auto;rounded=1;" parent="1" vertex="1">
          <mxGeometry x="939.76" y="900" width="30" height="30" as="geometry" />
        </mxCell>
        <mxCell id="48" value="w" style="ellipse;whiteSpace=wrap;html=1;aspect=fixed;fillStyle=auto;rounded=1;" parent="1" vertex="1">
          <mxGeometry x="979.76" y="900" width="30" height="30" as="geometry" />
        </mxCell>
        <mxCell id="49" value="J" style="ellipse;whiteSpace=wrap;html=1;aspect=fixed;fillStyle=auto;rounded=1;" parent="1" vertex="1">
          <mxGeometry x="1029.76" y="370" width="30" height="30" as="geometry" />
        </mxCell>
        <mxCell id="50" value="T" style="ellipse;whiteSpace=wrap;html=1;aspect=fixed;fillStyle=auto;rounded=1;" parent="1" vertex="1">
          <mxGeometry x="1029.76" y="480" width="30" height="30" as="geometry" />
        </mxCell>
        <mxCell id="51" value="d" style="ellipse;whiteSpace=wrap;html=1;aspect=fixed;fillStyle=auto;rounded=1;" parent="1" vertex="1">
          <mxGeometry x="1019.76" y="620" width="30" height="30" as="geometry" />
        </mxCell>
        <mxCell id="52" value="n" style="ellipse;whiteSpace=wrap;html=1;aspect=fixed;fillStyle=auto;rounded=1;" parent="1" vertex="1">
          <mxGeometry x="1019.76" y="750" width="30" height="30" as="geometry" />
        </mxCell>
        <mxCell id="53" value="x" style="ellipse;whiteSpace=wrap;html=1;aspect=fixed;fillStyle=auto;rounded=1;" parent="1" vertex="1">
          <mxGeometry x="1019.76" y="900" width="30" height="30" as="geometry" />
        </mxCell>
        <mxCell id="54" value="y" style="ellipse;whiteSpace=wrap;html=1;aspect=fixed;fillStyle=auto;rounded=1;" parent="1" vertex="1">
          <mxGeometry x="659.76" y="1070" width="30" height="30" as="geometry" />
        </mxCell>
        <mxCell id="55" value="z" style="ellipse;whiteSpace=wrap;html=1;aspect=fixed;fillStyle=auto;rounded=1;" parent="1" vertex="1">
          <mxGeometry x="699.76" y="1070" width="30" height="30" as="geometry" />
        </mxCell>
        <mxCell id="57" value="" style="endArrow=none;html=1;fontSize=24;jumpStyle=none;curved=1;rounded=1;" parent="1" edge="1">
          <mxGeometry width="50" height="50" relative="1" as="geometry">
            <mxPoint x="639.76" y="350" as="sourcePoint" />
            <mxPoint x="1019.76" y="350" as="targetPoint" />
          </mxGeometry>
        </mxCell>
        <mxCell id="59" value="" style="endArrow=none;html=1;fontSize=24;rounded=1;" parent="1" edge="1">
          <mxGeometry width="50" height="50" relative="1" as="geometry">
            <mxPoint x="639.76" y="680" as="sourcePoint" />
            <mxPoint x="1079.76" y="680" as="targetPoint" />
          </mxGeometry>
        </mxCell>
        <mxCell id="60" value="" style="endArrow=none;html=1;fontSize=24;rounded=1;" parent="1" edge="1">
          <mxGeometry width="50" height="50" relative="1" as="geometry">
            <mxPoint x="639.76" y="600" as="sourcePoint" />
            <mxPoint x="1019.76" y="600" as="targetPoint" />
          </mxGeometry>
        </mxCell>
        <mxCell id="61" value="" style="endArrow=none;html=1;fontSize=24;rounded=1;" parent="1" edge="1">
          <mxGeometry width="50" height="50" relative="1" as="geometry">
            <mxPoint x="629.76" y="460" as="sourcePoint" />
            <mxPoint x="1019.76" y="460" as="targetPoint" />
          </mxGeometry>
        </mxCell>
        <mxCell id="66" value="" style="endArrow=none;html=1;fontSize=24;curved=1;jumpStyle=none;rounded=1;" parent="1" edge="1">
          <mxGeometry width="50" height="50" relative="1" as="geometry">
            <mxPoint x="519.76" y="350" as="sourcePoint" />
            <mxPoint x="579.76" y="350" as="targetPoint" />
          </mxGeometry>
        </mxCell>
        <mxCell id="69" value="" style="endArrow=none;html=1;fontSize=24;curved=1;jumpStyle=none;rounded=1;" parent="1" edge="1">
          <mxGeometry width="50" height="50" relative="1" as="geometry">
            <mxPoint x="609.76" y="1020" as="sourcePoint" />
            <mxPoint x="609.76" y="370" as="targetPoint" />
          </mxGeometry>
        </mxCell>
        <mxCell id="71" value="" style="endArrow=none;html=1;fontSize=24;curved=1;jumpStyle=none;edgeStyle=orthogonalEdgeStyle;rounded=1;" parent="1" edge="1">
          <mxGeometry width="50" height="50" relative="1" as="geometry">
            <mxPoint x="579.76" y="350" as="sourcePoint" />
            <mxPoint x="609.76" y="370" as="targetPoint" />
          </mxGeometry>
        </mxCell>
        <mxCell id="72" value="" style="endArrow=none;html=1;fontSize=24;curved=1;jumpStyle=none;rounded=1;" parent="1" edge="1">
          <mxGeometry width="50" height="50" relative="1" as="geometry">
            <mxPoint x="579.76" y="350" as="sourcePoint" />
            <mxPoint x="639.76" y="350" as="targetPoint" />
          </mxGeometry>
        </mxCell>
        <mxCell id="73" value="" style="endArrow=none;html=1;fontSize=24;jumpStyle=none;edgeStyle=orthogonalEdgeStyle;curved=1;rounded=1;" parent="1" edge="1">
          <mxGeometry width="50" height="50" relative="1" as="geometry">
            <mxPoint x="639.76" y="430" as="sourcePoint" />
            <mxPoint x="609.76" y="410" as="targetPoint" />
          </mxGeometry>
        </mxCell>
        <mxCell id="74" value="" style="endArrow=none;html=1;fontSize=24;jumpStyle=none;edgeStyle=orthogonalEdgeStyle;curved=1;rounded=1;" parent="1" edge="1">
          <mxGeometry width="50" height="50" relative="1" as="geometry">
            <mxPoint x="639.76" y="600" as="sourcePoint" />
            <mxPoint x="609.76" y="570" as="targetPoint" />
          </mxGeometry>
        </mxCell>
        <mxCell id="75" value="" style="endArrow=none;html=1;fontSize=24;curved=1;jumpStyle=none;edgeStyle=orthogonalEdgeStyle;rounded=1;" parent="1" edge="1">
          <mxGeometry width="50" height="50" relative="1" as="geometry">
            <mxPoint x="639.76" y="680" as="sourcePoint" />
            <mxPoint x="609.76" y="650" as="targetPoint" />
          </mxGeometry>
        </mxCell>
        <mxCell id="78" value="" style="endArrow=none;html=1;fontSize=24;jumpStyle=none;entryX=0.5;entryY=0;entryDx=0;entryDy=0;edgeStyle=orthogonalEdgeStyle;curved=1;rounded=1;" parent="1" target="49" edge="1">
          <mxGeometry width="50" height="50" relative="1" as="geometry">
            <mxPoint x="1019.76" y="350" as="sourcePoint" />
            <mxPoint x="1039.76" y="400" as="targetPoint" />
          </mxGeometry>
        </mxCell>
        <mxCell id="79" value="" style="endArrow=none;html=1;fontSize=24;curved=1;jumpStyle=none;entryX=0.5;entryY=1;entryDx=0;entryDy=0;edgeStyle=orthogonalEdgeStyle;rounded=1;" parent="1" target="49" edge="1">
          <mxGeometry width="50" height="50" relative="1" as="geometry">
            <mxPoint x="1069.76" y="430" as="sourcePoint" />
            <mxPoint x="1039.76" y="400" as="targetPoint" />
          </mxGeometry>
        </mxCell>
        <mxCell id="80" value="" style="endArrow=none;html=1;fontSize=24;curved=1;jumpStyle=none;rounded=1;" parent="1" edge="1">
          <mxGeometry width="50" height="50" relative="1" as="geometry">
            <mxPoint x="1109.76" y="1090" as="sourcePoint" />
            <mxPoint x="1108.7099999999998" y="450" as="targetPoint" />
          </mxGeometry>
        </mxCell>
        <mxCell id="81" value="" style="endArrow=none;html=1;fontSize=24;curved=1;jumpStyle=none;edgeStyle=orthogonalEdgeStyle;rounded=1;" parent="1" edge="1">
          <mxGeometry width="50" height="50" relative="1" as="geometry">
            <mxPoint x="1078.7099999999998" y="430" as="sourcePoint" />
            <mxPoint x="1108.7099999999998" y="450" as="targetPoint" />
          </mxGeometry>
        </mxCell>
        <mxCell id="82" value="" style="endArrow=none;html=1;fontSize=24;jumpStyle=none;entryX=0.5;entryY=0;entryDx=0;entryDy=0;edgeStyle=orthogonalEdgeStyle;curved=1;rounded=1;" parent="1" edge="1">
          <mxGeometry width="50" height="50" relative="1" as="geometry">
            <mxPoint x="979.76" y="350" as="sourcePoint" />
            <mxPoint x="1004.76" y="370" as="targetPoint" />
          </mxGeometry>
        </mxCell>
        <mxCell id="83" value="" style="endArrow=none;html=1;fontSize=24;jumpStyle=none;entryX=0.5;entryY=0;entryDx=0;entryDy=0;edgeStyle=orthogonalEdgeStyle;curved=1;rounded=1;" parent="1" edge="1">
          <mxGeometry width="50" height="50" relative="1" as="geometry">
            <mxPoint x="939.76" y="350" as="sourcePoint" />
            <mxPoint x="964.76" y="370" as="targetPoint" />
          </mxGeometry>
        </mxCell>
        <mxCell id="84" value="" style="endArrow=none;html=1;fontSize=24;jumpStyle=none;entryX=0.5;entryY=0;entryDx=0;entryDy=0;edgeStyle=orthogonalEdgeStyle;curved=1;rounded=1;" parent="1" edge="1">
          <mxGeometry width="50" height="50" relative="1" as="geometry">
            <mxPoint x="899.76" y="350" as="sourcePoint" />
            <mxPoint x="924.76" y="370" as="targetPoint" />
          </mxGeometry>
        </mxCell>
        <mxCell id="85" value="" style="endArrow=none;html=1;fontSize=24;jumpStyle=none;entryX=0.5;entryY=0;entryDx=0;entryDy=0;edgeStyle=orthogonalEdgeStyle;curved=1;rounded=1;" parent="1" edge="1">
          <mxGeometry width="50" height="50" relative="1" as="geometry">
            <mxPoint x="859.76" y="350" as="sourcePoint" />
            <mxPoint x="884.76" y="370" as="targetPoint" />
          </mxGeometry>
        </mxCell>
        <mxCell id="86" value="" style="endArrow=none;html=1;fontSize=24;jumpStyle=none;entryX=0.5;entryY=0;entryDx=0;entryDy=0;edgeStyle=orthogonalEdgeStyle;curved=1;rounded=1;" parent="1" edge="1">
          <mxGeometry width="50" height="50" relative="1" as="geometry">
            <mxPoint x="819.76" y="350" as="sourcePoint" />
            <mxPoint x="844.76" y="370" as="targetPoint" />
          </mxGeometry>
        </mxCell>
        <mxCell id="87" value="" style="endArrow=none;html=1;fontSize=24;jumpStyle=none;entryX=0.5;entryY=0;entryDx=0;entryDy=0;edgeStyle=orthogonalEdgeStyle;curved=1;rounded=1;" parent="1" edge="1">
          <mxGeometry width="50" height="50" relative="1" as="geometry">
            <mxPoint x="779.76" y="350" as="sourcePoint" />
            <mxPoint x="804.76" y="370" as="targetPoint" />
          </mxGeometry>
        </mxCell>
        <mxCell id="88" value="" style="endArrow=none;html=1;fontSize=24;jumpStyle=none;entryX=0.5;entryY=0;entryDx=0;entryDy=0;edgeStyle=orthogonalEdgeStyle;curved=1;rounded=1;" parent="1" edge="1">
          <mxGeometry width="50" height="50" relative="1" as="geometry">
            <mxPoint x="739.76" y="350" as="sourcePoint" />
            <mxPoint x="764.76" y="370" as="targetPoint" />
          </mxGeometry>
        </mxCell>
        <mxCell id="89" value="" style="endArrow=none;html=1;fontSize=24;jumpStyle=none;entryX=0.5;entryY=0;entryDx=0;entryDy=0;edgeStyle=orthogonalEdgeStyle;curved=1;rounded=1;" parent="1" edge="1">
          <mxGeometry width="50" height="50" relative="1" as="geometry">
            <mxPoint x="699.76" y="350" as="sourcePoint" />
            <mxPoint x="724.76" y="370" as="targetPoint" />
          </mxGeometry>
        </mxCell>
        <mxCell id="90" value="" style="endArrow=none;html=1;fontSize=24;jumpStyle=none;entryX=0.5;entryY=0;entryDx=0;entryDy=0;edgeStyle=orthogonalEdgeStyle;curved=1;rounded=1;" parent="1" edge="1">
          <mxGeometry width="50" height="50" relative="1" as="geometry">
            <mxPoint x="659.76" y="350" as="sourcePoint" />
            <mxPoint x="684.76" y="370" as="targetPoint" />
          </mxGeometry>
        </mxCell>
        <mxCell id="91" value="" style="endArrow=none;html=1;fontSize=24;curved=1;jumpStyle=none;entryX=0.5;entryY=1;entryDx=0;entryDy=0;edgeStyle=orthogonalEdgeStyle;rounded=1;" parent="1" edge="1">
          <mxGeometry width="50" height="50" relative="1" as="geometry">
            <mxPoint x="1029.76" y="430" as="sourcePoint" />
            <mxPoint x="1004.76" y="400" as="targetPoint" />
          </mxGeometry>
        </mxCell>
        <mxCell id="92" value="" style="endArrow=none;html=1;fontSize=24;curved=1;jumpStyle=none;entryX=0.5;entryY=1;entryDx=0;entryDy=0;edgeStyle=orthogonalEdgeStyle;rounded=1;" parent="1" edge="1">
          <mxGeometry width="50" height="50" relative="1" as="geometry">
            <mxPoint x="989.76" y="430" as="sourcePoint" />
            <mxPoint x="964.76" y="400" as="targetPoint" />
          </mxGeometry>
        </mxCell>
        <mxCell id="93" value="" style="endArrow=none;html=1;fontSize=24;curved=1;jumpStyle=none;entryX=0.5;entryY=1;entryDx=0;entryDy=0;edgeStyle=orthogonalEdgeStyle;rounded=1;" parent="1" edge="1">
          <mxGeometry width="50" height="50" relative="1" as="geometry">
            <mxPoint x="949.76" y="430" as="sourcePoint" />
            <mxPoint x="924.76" y="400" as="targetPoint" />
          </mxGeometry>
        </mxCell>
        <mxCell id="94" value="" style="endArrow=none;html=1;fontSize=24;curved=1;jumpStyle=none;entryX=0.5;entryY=1;entryDx=0;entryDy=0;edgeStyle=orthogonalEdgeStyle;rounded=1;" parent="1" edge="1">
          <mxGeometry width="50" height="50" relative="1" as="geometry">
            <mxPoint x="909.76" y="430" as="sourcePoint" />
            <mxPoint x="884.76" y="400" as="targetPoint" />
          </mxGeometry>
        </mxCell>
        <mxCell id="95" value="" style="endArrow=none;html=1;fontSize=24;curved=1;jumpStyle=none;entryX=0.5;entryY=1;entryDx=0;entryDy=0;edgeStyle=orthogonalEdgeStyle;rounded=1;" parent="1" edge="1">
          <mxGeometry width="50" height="50" relative="1" as="geometry">
            <mxPoint x="869.76" y="430" as="sourcePoint" />
            <mxPoint x="844.76" y="400" as="targetPoint" />
          </mxGeometry>
        </mxCell>
        <mxCell id="96" value="" style="endArrow=none;html=1;fontSize=24;curved=1;jumpStyle=none;entryX=0.5;entryY=1;entryDx=0;entryDy=0;edgeStyle=orthogonalEdgeStyle;rounded=1;" parent="1" edge="1">
          <mxGeometry width="50" height="50" relative="1" as="geometry">
            <mxPoint x="829.76" y="430" as="sourcePoint" />
            <mxPoint x="804.76" y="400" as="targetPoint" />
          </mxGeometry>
        </mxCell>
        <mxCell id="97" value="" style="endArrow=none;html=1;fontSize=24;curved=1;jumpStyle=none;entryX=0.5;entryY=1;entryDx=0;entryDy=0;edgeStyle=orthogonalEdgeStyle;rounded=1;" parent="1" edge="1">
          <mxGeometry width="50" height="50" relative="1" as="geometry">
            <mxPoint x="789.76" y="430" as="sourcePoint" />
            <mxPoint x="764.76" y="400" as="targetPoint" />
          </mxGeometry>
        </mxCell>
        <mxCell id="98" value="" style="endArrow=none;html=1;fontSize=24;curved=1;jumpStyle=none;entryX=0.5;entryY=1;entryDx=0;entryDy=0;edgeStyle=orthogonalEdgeStyle;rounded=1;" parent="1" edge="1">
          <mxGeometry width="50" height="50" relative="1" as="geometry">
            <mxPoint x="749.76" y="430" as="sourcePoint" />
            <mxPoint x="724.76" y="400" as="targetPoint" />
          </mxGeometry>
        </mxCell>
        <mxCell id="99" value="" style="endArrow=none;html=1;fontSize=24;curved=1;jumpStyle=none;entryX=0.5;entryY=1;entryDx=0;entryDy=0;edgeStyle=orthogonalEdgeStyle;rounded=1;" parent="1" edge="1">
          <mxGeometry width="50" height="50" relative="1" as="geometry">
            <mxPoint x="709.76" y="430" as="sourcePoint" />
            <mxPoint x="684.76" y="400" as="targetPoint" />
            <Array as="points">
              <mxPoint x="684.76" y="430" />
            </Array>
          </mxGeometry>
        </mxCell>
        <mxCell id="110" value="" style="endArrow=none;html=1;fontSize=24;rounded=1;" parent="1" edge="1">
          <mxGeometry width="50" height="50" relative="1" as="geometry">
            <mxPoint x="638.7099999999998" y="430" as="sourcePoint" />
            <mxPoint x="1078.7099999999998" y="430" as="targetPoint" />
          </mxGeometry>
        </mxCell>
        <mxCell id="111" value="" style="endArrow=none;html=1;fontSize=24;jumpStyle=none;entryX=0.5;entryY=0;entryDx=0;entryDy=0;edgeStyle=orthogonalEdgeStyle;curved=1;rounded=1;" parent="1" edge="1">
          <mxGeometry width="50" height="50" relative="1" as="geometry">
            <mxPoint x="659.76" y="350.00000000000045" as="sourcePoint" />
            <mxPoint x="684.76" y="370.00000000000045" as="targetPoint" />
          </mxGeometry>
        </mxCell>
        <mxCell id="112" value="" style="endArrow=none;html=1;fontSize=24;jumpStyle=none;entryX=0.5;entryY=0;entryDx=0;entryDy=0;edgeStyle=orthogonalEdgeStyle;curved=1;rounded=1;" parent="1" edge="1">
          <mxGeometry width="50" height="50" relative="1" as="geometry">
            <mxPoint x="699.76" y="350.00000000000045" as="sourcePoint" />
            <mxPoint x="724.76" y="370.00000000000045" as="targetPoint" />
          </mxGeometry>
        </mxCell>
        <mxCell id="113" value="" style="endArrow=none;html=1;fontSize=24;jumpStyle=none;entryX=0.5;entryY=0;entryDx=0;entryDy=0;edgeStyle=orthogonalEdgeStyle;curved=1;rounded=1;" parent="1" edge="1">
          <mxGeometry width="50" height="50" relative="1" as="geometry">
            <mxPoint x="739.76" y="350.00000000000045" as="sourcePoint" />
            <mxPoint x="764.76" y="370.00000000000045" as="targetPoint" />
          </mxGeometry>
        </mxCell>
        <mxCell id="114" value="" style="endArrow=none;html=1;fontSize=24;jumpStyle=none;entryX=0.5;entryY=0;entryDx=0;entryDy=0;edgeStyle=orthogonalEdgeStyle;curved=1;rounded=1;" parent="1" edge="1">
          <mxGeometry width="50" height="50" relative="1" as="geometry">
            <mxPoint x="779.76" y="350.00000000000045" as="sourcePoint" />
            <mxPoint x="804.76" y="370.00000000000045" as="targetPoint" />
          </mxGeometry>
        </mxCell>
        <mxCell id="115" value="" style="endArrow=none;html=1;fontSize=24;jumpStyle=none;entryX=0.5;entryY=0;entryDx=0;entryDy=0;edgeStyle=orthogonalEdgeStyle;curved=1;rounded=1;" parent="1" edge="1">
          <mxGeometry width="50" height="50" relative="1" as="geometry">
            <mxPoint x="819.76" y="350.00000000000045" as="sourcePoint" />
            <mxPoint x="844.76" y="370.00000000000045" as="targetPoint" />
          </mxGeometry>
        </mxCell>
        <mxCell id="116" value="" style="endArrow=none;html=1;fontSize=24;jumpStyle=none;entryX=0.5;entryY=0;entryDx=0;entryDy=0;edgeStyle=orthogonalEdgeStyle;curved=1;rounded=1;" parent="1" edge="1">
          <mxGeometry width="50" height="50" relative="1" as="geometry">
            <mxPoint x="859.76" y="350.00000000000045" as="sourcePoint" />
            <mxPoint x="884.76" y="370.00000000000045" as="targetPoint" />
          </mxGeometry>
        </mxCell>
        <mxCell id="117" value="" style="endArrow=none;html=1;fontSize=24;jumpStyle=none;entryX=0.5;entryY=0;entryDx=0;entryDy=0;edgeStyle=orthogonalEdgeStyle;curved=1;rounded=1;" parent="1" edge="1">
          <mxGeometry width="50" height="50" relative="1" as="geometry">
            <mxPoint x="899.76" y="350.00000000000045" as="sourcePoint" />
            <mxPoint x="924.76" y="370.00000000000045" as="targetPoint" />
          </mxGeometry>
        </mxCell>
        <mxCell id="118" value="" style="endArrow=none;html=1;fontSize=24;jumpStyle=none;entryX=0.5;entryY=0;entryDx=0;entryDy=0;edgeStyle=orthogonalEdgeStyle;curved=1;rounded=1;" parent="1" edge="1">
          <mxGeometry width="50" height="50" relative="1" as="geometry">
            <mxPoint x="939.76" y="350.00000000000045" as="sourcePoint" />
            <mxPoint x="964.76" y="370.00000000000045" as="targetPoint" />
          </mxGeometry>
        </mxCell>
        <mxCell id="119" value="" style="endArrow=none;html=1;fontSize=24;jumpStyle=none;entryX=0.5;entryY=0;entryDx=0;entryDy=0;edgeStyle=orthogonalEdgeStyle;curved=1;rounded=1;" parent="1" edge="1">
          <mxGeometry width="50" height="50" relative="1" as="geometry">
            <mxPoint x="979.76" y="350.00000000000045" as="sourcePoint" />
            <mxPoint x="1004.76" y="370.00000000000045" as="targetPoint" />
          </mxGeometry>
        </mxCell>
        <mxCell id="120" value="" style="endArrow=none;html=1;fontSize=24;jumpStyle=none;entryX=0.5;entryY=0;entryDx=0;entryDy=0;edgeStyle=orthogonalEdgeStyle;curved=1;rounded=1;" parent="1" edge="1">
          <mxGeometry width="50" height="50" relative="1" as="geometry">
            <mxPoint x="659.76" y="350.00000000000045" as="sourcePoint" />
            <mxPoint x="684.76" y="370.00000000000045" as="targetPoint" />
          </mxGeometry>
        </mxCell>
        <mxCell id="121" value="" style="endArrow=none;html=1;fontSize=24;jumpStyle=none;entryX=0.5;entryY=0;entryDx=0;entryDy=0;edgeStyle=orthogonalEdgeStyle;curved=1;rounded=1;" parent="1" edge="1">
          <mxGeometry width="50" height="50" relative="1" as="geometry">
            <mxPoint x="699.76" y="350.00000000000045" as="sourcePoint" />
            <mxPoint x="724.76" y="370.00000000000045" as="targetPoint" />
          </mxGeometry>
        </mxCell>
        <mxCell id="122" value="" style="endArrow=none;html=1;fontSize=24;jumpStyle=none;entryX=0.5;entryY=0;entryDx=0;entryDy=0;edgeStyle=orthogonalEdgeStyle;curved=1;rounded=1;" parent="1" edge="1">
          <mxGeometry width="50" height="50" relative="1" as="geometry">
            <mxPoint x="739.76" y="350.00000000000045" as="sourcePoint" />
            <mxPoint x="764.76" y="370.00000000000045" as="targetPoint" />
          </mxGeometry>
        </mxCell>
        <mxCell id="123" value="" style="endArrow=none;html=1;fontSize=24;jumpStyle=none;entryX=0.5;entryY=0;entryDx=0;entryDy=0;edgeStyle=orthogonalEdgeStyle;curved=1;rounded=1;" parent="1" edge="1">
          <mxGeometry width="50" height="50" relative="1" as="geometry">
            <mxPoint x="779.76" y="350.00000000000045" as="sourcePoint" />
            <mxPoint x="804.76" y="370.00000000000045" as="targetPoint" />
          </mxGeometry>
        </mxCell>
        <mxCell id="124" value="" style="endArrow=none;html=1;fontSize=24;jumpStyle=none;entryX=0.5;entryY=0;entryDx=0;entryDy=0;edgeStyle=orthogonalEdgeStyle;curved=1;rounded=1;" parent="1" edge="1">
          <mxGeometry width="50" height="50" relative="1" as="geometry">
            <mxPoint x="819.76" y="350.00000000000045" as="sourcePoint" />
            <mxPoint x="844.76" y="370.00000000000045" as="targetPoint" />
          </mxGeometry>
        </mxCell>
        <mxCell id="125" value="" style="endArrow=none;html=1;fontSize=24;jumpStyle=none;entryX=0.5;entryY=0;entryDx=0;entryDy=0;edgeStyle=orthogonalEdgeStyle;curved=1;rounded=1;" parent="1" edge="1">
          <mxGeometry width="50" height="50" relative="1" as="geometry">
            <mxPoint x="859.76" y="350.00000000000045" as="sourcePoint" />
            <mxPoint x="884.76" y="370.00000000000045" as="targetPoint" />
          </mxGeometry>
        </mxCell>
        <mxCell id="126" value="" style="endArrow=none;html=1;fontSize=24;jumpStyle=none;entryX=0.5;entryY=0;entryDx=0;entryDy=0;edgeStyle=orthogonalEdgeStyle;curved=1;rounded=1;" parent="1" edge="1">
          <mxGeometry width="50" height="50" relative="1" as="geometry">
            <mxPoint x="899.76" y="350.00000000000045" as="sourcePoint" />
            <mxPoint x="924.76" y="370.00000000000045" as="targetPoint" />
          </mxGeometry>
        </mxCell>
        <mxCell id="127" value="" style="endArrow=none;html=1;fontSize=24;jumpStyle=none;entryX=0.5;entryY=0;entryDx=0;entryDy=0;edgeStyle=orthogonalEdgeStyle;curved=1;rounded=1;" parent="1" edge="1">
          <mxGeometry width="50" height="50" relative="1" as="geometry">
            <mxPoint x="939.76" y="350.00000000000045" as="sourcePoint" />
            <mxPoint x="964.76" y="370.00000000000045" as="targetPoint" />
          </mxGeometry>
        </mxCell>
        <mxCell id="128" value="" style="endArrow=none;html=1;fontSize=24;jumpStyle=none;entryX=0.5;entryY=0;entryDx=0;entryDy=0;edgeStyle=orthogonalEdgeStyle;curved=1;rounded=1;" parent="1" edge="1">
          <mxGeometry width="50" height="50" relative="1" as="geometry">
            <mxPoint x="979.76" y="350.00000000000045" as="sourcePoint" />
            <mxPoint x="1004.76" y="370.00000000000045" as="targetPoint" />
          </mxGeometry>
        </mxCell>
        <mxCell id="129" value="" style="endArrow=none;html=1;fontSize=24;jumpStyle=none;entryX=0.5;entryY=0;entryDx=0;entryDy=0;edgeStyle=orthogonalEdgeStyle;curved=1;rounded=1;" parent="1" edge="1">
          <mxGeometry width="50" height="50" relative="1" as="geometry">
            <mxPoint x="1017.26" y="460.00000000000045" as="sourcePoint" />
            <mxPoint x="1042.26" y="480.00000000000045" as="targetPoint" />
          </mxGeometry>
        </mxCell>
        <mxCell id="130" value="" style="endArrow=none;html=1;fontSize=24;jumpStyle=none;entryX=0.5;entryY=0;entryDx=0;entryDy=0;edgeStyle=orthogonalEdgeStyle;curved=1;rounded=1;" parent="1" edge="1">
          <mxGeometry width="50" height="50" relative="1" as="geometry">
            <mxPoint x="657.26" y="460.00000000000045" as="sourcePoint" />
            <mxPoint x="682.26" y="480.00000000000045" as="targetPoint" />
          </mxGeometry>
        </mxCell>
        <mxCell id="131" value="" style="endArrow=none;html=1;fontSize=24;jumpStyle=none;entryX=0.5;entryY=0;entryDx=0;entryDy=0;edgeStyle=orthogonalEdgeStyle;curved=1;rounded=1;" parent="1" edge="1">
          <mxGeometry width="50" height="50" relative="1" as="geometry">
            <mxPoint x="697.26" y="460.00000000000045" as="sourcePoint" />
            <mxPoint x="722.26" y="480.00000000000045" as="targetPoint" />
          </mxGeometry>
        </mxCell>
        <mxCell id="132" value="" style="endArrow=none;html=1;fontSize=24;jumpStyle=none;entryX=0.5;entryY=0;entryDx=0;entryDy=0;edgeStyle=orthogonalEdgeStyle;curved=1;rounded=1;" parent="1" edge="1">
          <mxGeometry width="50" height="50" relative="1" as="geometry">
            <mxPoint x="737.26" y="460.00000000000045" as="sourcePoint" />
            <mxPoint x="762.26" y="480.00000000000045" as="targetPoint" />
          </mxGeometry>
        </mxCell>
        <mxCell id="133" value="" style="endArrow=none;html=1;fontSize=24;jumpStyle=none;entryX=0.5;entryY=0;entryDx=0;entryDy=0;edgeStyle=orthogonalEdgeStyle;curved=1;rounded=1;" parent="1" edge="1">
          <mxGeometry width="50" height="50" relative="1" as="geometry">
            <mxPoint x="777.26" y="460.00000000000045" as="sourcePoint" />
            <mxPoint x="802.26" y="480.00000000000045" as="targetPoint" />
          </mxGeometry>
        </mxCell>
        <mxCell id="134" value="" style="endArrow=none;html=1;fontSize=24;jumpStyle=none;entryX=0.5;entryY=0;entryDx=0;entryDy=0;edgeStyle=orthogonalEdgeStyle;curved=1;rounded=1;" parent="1" edge="1">
          <mxGeometry width="50" height="50" relative="1" as="geometry">
            <mxPoint x="817.26" y="460.00000000000045" as="sourcePoint" />
            <mxPoint x="842.26" y="480.00000000000045" as="targetPoint" />
          </mxGeometry>
        </mxCell>
        <mxCell id="135" value="" style="endArrow=none;html=1;fontSize=24;jumpStyle=none;entryX=0.5;entryY=0;entryDx=0;entryDy=0;edgeStyle=orthogonalEdgeStyle;curved=1;rounded=1;" parent="1" edge="1">
          <mxGeometry width="50" height="50" relative="1" as="geometry">
            <mxPoint x="857.26" y="460.00000000000045" as="sourcePoint" />
            <mxPoint x="882.26" y="480.00000000000045" as="targetPoint" />
          </mxGeometry>
        </mxCell>
        <mxCell id="136" value="" style="endArrow=none;html=1;fontSize=24;jumpStyle=none;entryX=0.5;entryY=0;entryDx=0;entryDy=0;edgeStyle=orthogonalEdgeStyle;curved=1;rounded=1;" parent="1" edge="1">
          <mxGeometry width="50" height="50" relative="1" as="geometry">
            <mxPoint x="897.26" y="460.00000000000045" as="sourcePoint" />
            <mxPoint x="922.26" y="480.00000000000045" as="targetPoint" />
          </mxGeometry>
        </mxCell>
        <mxCell id="137" value="" style="endArrow=none;html=1;fontSize=24;jumpStyle=none;entryX=0.5;entryY=0;entryDx=0;entryDy=0;edgeStyle=orthogonalEdgeStyle;curved=1;rounded=1;" parent="1" edge="1">
          <mxGeometry width="50" height="50" relative="1" as="geometry">
            <mxPoint x="937.26" y="460.00000000000045" as="sourcePoint" />
            <mxPoint x="962.26" y="480.00000000000045" as="targetPoint" />
          </mxGeometry>
        </mxCell>
        <mxCell id="138" value="" style="endArrow=none;html=1;fontSize=24;jumpStyle=none;entryX=0.5;entryY=0;entryDx=0;entryDy=0;edgeStyle=orthogonalEdgeStyle;curved=1;rounded=1;" parent="1" edge="1">
          <mxGeometry width="50" height="50" relative="1" as="geometry">
            <mxPoint x="977.26" y="460.00000000000045" as="sourcePoint" />
            <mxPoint x="1002.26" y="480.00000000000045" as="targetPoint" />
          </mxGeometry>
        </mxCell>
        <mxCell id="139" value="" style="endArrow=none;html=1;fontSize=24;jumpStyle=none;edgeStyle=orthogonalEdgeStyle;curved=1;rounded=1;" parent="1" edge="1">
          <mxGeometry width="50" height="50" relative="1" as="geometry">
            <mxPoint x="640.2900000000002" y="540.0000000000005" as="sourcePoint" />
            <mxPoint x="610.2900000000002" y="520.0000000000005" as="targetPoint" />
          </mxGeometry>
        </mxCell>
        <mxCell id="140" value="" style="endArrow=none;html=1;fontSize=24;curved=1;jumpStyle=none;entryX=0.5;entryY=1;entryDx=0;entryDy=0;edgeStyle=orthogonalEdgeStyle;rounded=1;" parent="1" edge="1">
          <mxGeometry width="50" height="50" relative="1" as="geometry">
            <mxPoint x="1070.2900000000002" y="540.0000000000005" as="sourcePoint" />
            <mxPoint x="1045.2900000000002" y="510.00000000000045" as="targetPoint" />
          </mxGeometry>
        </mxCell>
        <mxCell id="141" value="" style="endArrow=none;html=1;fontSize=24;curved=1;jumpStyle=none;entryX=0.5;entryY=1;entryDx=0;entryDy=0;edgeStyle=orthogonalEdgeStyle;rounded=1;" parent="1" edge="1">
          <mxGeometry width="50" height="50" relative="1" as="geometry">
            <mxPoint x="1030.2900000000002" y="540.0000000000005" as="sourcePoint" />
            <mxPoint x="1005.2900000000002" y="510.00000000000045" as="targetPoint" />
          </mxGeometry>
        </mxCell>
        <mxCell id="142" value="" style="endArrow=none;html=1;fontSize=24;curved=1;jumpStyle=none;entryX=0.5;entryY=1;entryDx=0;entryDy=0;edgeStyle=orthogonalEdgeStyle;rounded=1;" parent="1" edge="1">
          <mxGeometry width="50" height="50" relative="1" as="geometry">
            <mxPoint x="990.2900000000002" y="540.0000000000005" as="sourcePoint" />
            <mxPoint x="965.2900000000002" y="510.00000000000045" as="targetPoint" />
          </mxGeometry>
        </mxCell>
        <mxCell id="143" value="" style="endArrow=none;html=1;fontSize=24;curved=1;jumpStyle=none;entryX=0.5;entryY=1;entryDx=0;entryDy=0;edgeStyle=orthogonalEdgeStyle;rounded=1;" parent="1" edge="1">
          <mxGeometry width="50" height="50" relative="1" as="geometry">
            <mxPoint x="950.2900000000002" y="540.0000000000005" as="sourcePoint" />
            <mxPoint x="925.2900000000002" y="510.00000000000045" as="targetPoint" />
          </mxGeometry>
        </mxCell>
        <mxCell id="144" value="" style="endArrow=none;html=1;fontSize=24;curved=1;jumpStyle=none;entryX=0.5;entryY=1;entryDx=0;entryDy=0;edgeStyle=orthogonalEdgeStyle;rounded=1;" parent="1" edge="1">
          <mxGeometry width="50" height="50" relative="1" as="geometry">
            <mxPoint x="910.2900000000002" y="540.0000000000005" as="sourcePoint" />
            <mxPoint x="885.2900000000002" y="510.00000000000045" as="targetPoint" />
          </mxGeometry>
        </mxCell>
        <mxCell id="145" value="" style="endArrow=none;html=1;fontSize=24;curved=1;jumpStyle=none;entryX=0.5;entryY=1;entryDx=0;entryDy=0;edgeStyle=orthogonalEdgeStyle;rounded=1;" parent="1" edge="1">
          <mxGeometry width="50" height="50" relative="1" as="geometry">
            <mxPoint x="870.2900000000002" y="540.0000000000005" as="sourcePoint" />
            <mxPoint x="845.2900000000002" y="510.00000000000045" as="targetPoint" />
          </mxGeometry>
        </mxCell>
        <mxCell id="146" value="" style="endArrow=none;html=1;fontSize=24;curved=1;jumpStyle=none;entryX=0.5;entryY=1;entryDx=0;entryDy=0;edgeStyle=orthogonalEdgeStyle;rounded=1;" parent="1" edge="1">
          <mxGeometry width="50" height="50" relative="1" as="geometry">
            <mxPoint x="830.2900000000002" y="540.0000000000005" as="sourcePoint" />
            <mxPoint x="805.2900000000002" y="510.00000000000045" as="targetPoint" />
          </mxGeometry>
        </mxCell>
        <mxCell id="147" value="" style="endArrow=none;html=1;fontSize=24;curved=1;jumpStyle=none;entryX=0.5;entryY=1;entryDx=0;entryDy=0;edgeStyle=orthogonalEdgeStyle;rounded=1;" parent="1" edge="1">
          <mxGeometry width="50" height="50" relative="1" as="geometry">
            <mxPoint x="790.2900000000002" y="540.0000000000005" as="sourcePoint" />
            <mxPoint x="765.2900000000002" y="510.00000000000045" as="targetPoint" />
          </mxGeometry>
        </mxCell>
        <mxCell id="148" value="" style="endArrow=none;html=1;fontSize=24;curved=1;jumpStyle=none;entryX=0.5;entryY=1;entryDx=0;entryDy=0;edgeStyle=orthogonalEdgeStyle;rounded=1;" parent="1" edge="1">
          <mxGeometry width="50" height="50" relative="1" as="geometry">
            <mxPoint x="750.2900000000002" y="540.0000000000005" as="sourcePoint" />
            <mxPoint x="725.2900000000002" y="510.00000000000045" as="targetPoint" />
          </mxGeometry>
        </mxCell>
        <mxCell id="149" value="" style="endArrow=none;html=1;fontSize=24;curved=1;jumpStyle=none;entryX=0.5;entryY=1;entryDx=0;entryDy=0;edgeStyle=orthogonalEdgeStyle;rounded=1;" parent="1" edge="1">
          <mxGeometry width="50" height="50" relative="1" as="geometry">
            <mxPoint x="710.2900000000002" y="540.0000000000005" as="sourcePoint" />
            <mxPoint x="685.2900000000002" y="510.00000000000045" as="targetPoint" />
            <Array as="points">
              <mxPoint x="685.2900000000002" y="540" />
            </Array>
          </mxGeometry>
        </mxCell>
        <mxCell id="150" value="" style="endArrow=none;html=1;fontSize=24;rounded=1;" parent="1" edge="1">
          <mxGeometry width="50" height="50" relative="1" as="geometry">
            <mxPoint x="639.2399999999996" y="540.0000000000005" as="sourcePoint" />
            <mxPoint x="1079.76" y="540" as="targetPoint" />
          </mxGeometry>
        </mxCell>
        <mxCell id="184" value="" style="endArrow=none;html=1;fontSize=24;jumpStyle=none;edgeStyle=orthogonalEdgeStyle;curved=1;rounded=1;" parent="1" edge="1">
          <mxGeometry width="50" height="50" relative="1" as="geometry">
            <mxPoint x="639.7700000000002" y="460.00000000000045" as="sourcePoint" />
            <mxPoint x="609.7700000000002" y="440.00000000000045" as="targetPoint" />
          </mxGeometry>
        </mxCell>
        <mxCell id="187" value="" style="endArrow=none;html=1;fontSize=24;jumpStyle=none;entryX=0.5;entryY=0;entryDx=0;entryDy=0;edgeStyle=orthogonalEdgeStyle;curved=1;rounded=1;" parent="1" edge="1">
          <mxGeometry width="50" height="50" relative="1" as="geometry">
            <mxPoint x="1012.26" y="600.0000000000005" as="sourcePoint" />
            <mxPoint x="1037.26" y="620.0000000000005" as="targetPoint" />
          </mxGeometry>
        </mxCell>
        <mxCell id="188" value="" style="endArrow=none;html=1;fontSize=24;jumpStyle=none;entryX=0.5;entryY=0;entryDx=0;entryDy=0;edgeStyle=orthogonalEdgeStyle;curved=1;rounded=1;" parent="1" edge="1">
          <mxGeometry width="50" height="50" relative="1" as="geometry">
            <mxPoint x="652.26" y="600.0000000000005" as="sourcePoint" />
            <mxPoint x="677.26" y="620.0000000000005" as="targetPoint" />
          </mxGeometry>
        </mxCell>
        <mxCell id="189" value="" style="endArrow=none;html=1;fontSize=24;jumpStyle=none;entryX=0.5;entryY=0;entryDx=0;entryDy=0;edgeStyle=orthogonalEdgeStyle;curved=1;rounded=1;" parent="1" edge="1">
          <mxGeometry width="50" height="50" relative="1" as="geometry">
            <mxPoint x="692.26" y="600.0000000000005" as="sourcePoint" />
            <mxPoint x="717.26" y="620.0000000000005" as="targetPoint" />
          </mxGeometry>
        </mxCell>
        <mxCell id="190" value="" style="endArrow=none;html=1;fontSize=24;jumpStyle=none;entryX=0.5;entryY=0;entryDx=0;entryDy=0;edgeStyle=orthogonalEdgeStyle;curved=1;rounded=1;" parent="1" edge="1">
          <mxGeometry width="50" height="50" relative="1" as="geometry">
            <mxPoint x="732.26" y="600.0000000000005" as="sourcePoint" />
            <mxPoint x="757.26" y="620.0000000000005" as="targetPoint" />
          </mxGeometry>
        </mxCell>
        <mxCell id="191" value="" style="endArrow=none;html=1;fontSize=24;jumpStyle=none;entryX=0.5;entryY=0;entryDx=0;entryDy=0;edgeStyle=orthogonalEdgeStyle;curved=1;rounded=1;" parent="1" edge="1">
          <mxGeometry width="50" height="50" relative="1" as="geometry">
            <mxPoint x="772.26" y="600.0000000000005" as="sourcePoint" />
            <mxPoint x="797.26" y="620.0000000000005" as="targetPoint" />
          </mxGeometry>
        </mxCell>
        <mxCell id="192" value="" style="endArrow=none;html=1;fontSize=24;jumpStyle=none;entryX=0.5;entryY=0;entryDx=0;entryDy=0;edgeStyle=orthogonalEdgeStyle;curved=1;rounded=1;" parent="1" edge="1">
          <mxGeometry width="50" height="50" relative="1" as="geometry">
            <mxPoint x="812.26" y="600.0000000000005" as="sourcePoint" />
            <mxPoint x="837.26" y="620.0000000000005" as="targetPoint" />
          </mxGeometry>
        </mxCell>
        <mxCell id="193" value="" style="endArrow=none;html=1;fontSize=24;jumpStyle=none;entryX=0.5;entryY=0;entryDx=0;entryDy=0;edgeStyle=orthogonalEdgeStyle;curved=1;rounded=1;" parent="1" edge="1">
          <mxGeometry width="50" height="50" relative="1" as="geometry">
            <mxPoint x="852.26" y="600.0000000000005" as="sourcePoint" />
            <mxPoint x="877.26" y="620.0000000000005" as="targetPoint" />
          </mxGeometry>
        </mxCell>
        <mxCell id="194" value="" style="endArrow=none;html=1;fontSize=24;jumpStyle=none;entryX=0.5;entryY=0;entryDx=0;entryDy=0;edgeStyle=orthogonalEdgeStyle;curved=1;rounded=1;" parent="1" edge="1">
          <mxGeometry width="50" height="50" relative="1" as="geometry">
            <mxPoint x="892.26" y="600.0000000000005" as="sourcePoint" />
            <mxPoint x="917.26" y="620.0000000000005" as="targetPoint" />
          </mxGeometry>
        </mxCell>
        <mxCell id="195" value="" style="endArrow=none;html=1;fontSize=24;jumpStyle=none;entryX=0.5;entryY=0;entryDx=0;entryDy=0;edgeStyle=orthogonalEdgeStyle;curved=1;rounded=1;" parent="1" edge="1">
          <mxGeometry width="50" height="50" relative="1" as="geometry">
            <mxPoint x="932.26" y="600.0000000000005" as="sourcePoint" />
            <mxPoint x="957.26" y="620.0000000000005" as="targetPoint" />
          </mxGeometry>
        </mxCell>
        <mxCell id="196" value="" style="endArrow=none;html=1;fontSize=24;jumpStyle=none;entryX=0.5;entryY=0;entryDx=0;entryDy=0;edgeStyle=orthogonalEdgeStyle;curved=1;rounded=1;" parent="1" edge="1">
          <mxGeometry width="50" height="50" relative="1" as="geometry">
            <mxPoint x="972.26" y="600.0000000000005" as="sourcePoint" />
            <mxPoint x="997.26" y="620.0000000000005" as="targetPoint" />
          </mxGeometry>
        </mxCell>
        <mxCell id="197" value="" style="endArrow=none;html=1;fontSize=24;curved=1;jumpStyle=none;entryX=0.5;entryY=1;entryDx=0;entryDy=0;edgeStyle=orthogonalEdgeStyle;rounded=1;" parent="1" edge="1">
          <mxGeometry width="50" height="50" relative="1" as="geometry">
            <mxPoint x="1059.76" y="680.0000000000005" as="sourcePoint" />
            <mxPoint x="1034.76" y="650.0000000000005" as="targetPoint" />
          </mxGeometry>
        </mxCell>
        <mxCell id="198" value="" style="endArrow=none;html=1;fontSize=24;curved=1;jumpStyle=none;entryX=0.5;entryY=1;entryDx=0;entryDy=0;edgeStyle=orthogonalEdgeStyle;rounded=1;" parent="1" edge="1">
          <mxGeometry width="50" height="50" relative="1" as="geometry">
            <mxPoint x="1019.76" y="680.0000000000005" as="sourcePoint" />
            <mxPoint x="994.76" y="650.0000000000005" as="targetPoint" />
          </mxGeometry>
        </mxCell>
        <mxCell id="199" value="" style="endArrow=none;html=1;fontSize=24;curved=1;jumpStyle=none;entryX=0.5;entryY=1;entryDx=0;entryDy=0;edgeStyle=orthogonalEdgeStyle;rounded=1;" parent="1" edge="1">
          <mxGeometry width="50" height="50" relative="1" as="geometry">
            <mxPoint x="979.76" y="680.0000000000005" as="sourcePoint" />
            <mxPoint x="954.76" y="650.0000000000005" as="targetPoint" />
          </mxGeometry>
        </mxCell>
        <mxCell id="200" value="" style="endArrow=none;html=1;fontSize=24;curved=1;jumpStyle=none;entryX=0.5;entryY=1;entryDx=0;entryDy=0;edgeStyle=orthogonalEdgeStyle;rounded=1;" parent="1" edge="1">
          <mxGeometry width="50" height="50" relative="1" as="geometry">
            <mxPoint x="939.76" y="680.0000000000005" as="sourcePoint" />
            <mxPoint x="914.76" y="650.0000000000005" as="targetPoint" />
          </mxGeometry>
        </mxCell>
        <mxCell id="201" value="" style="endArrow=none;html=1;fontSize=24;curved=1;jumpStyle=none;entryX=0.5;entryY=1;entryDx=0;entryDy=0;edgeStyle=orthogonalEdgeStyle;rounded=1;" parent="1" edge="1">
          <mxGeometry width="50" height="50" relative="1" as="geometry">
            <mxPoint x="899.76" y="680.0000000000005" as="sourcePoint" />
            <mxPoint x="874.76" y="650.0000000000005" as="targetPoint" />
            <Array as="points">
              <mxPoint x="875.2299999999998" y="680" />
            </Array>
          </mxGeometry>
        </mxCell>
        <mxCell id="202" value="" style="endArrow=none;html=1;fontSize=24;curved=1;jumpStyle=none;entryX=0.5;entryY=1;entryDx=0;entryDy=0;edgeStyle=orthogonalEdgeStyle;rounded=1;" parent="1" edge="1">
          <mxGeometry width="50" height="50" relative="1" as="geometry">
            <mxPoint x="859.76" y="680.0000000000005" as="sourcePoint" />
            <mxPoint x="834.76" y="650.0000000000005" as="targetPoint" />
          </mxGeometry>
        </mxCell>
        <mxCell id="203" value="" style="endArrow=none;html=1;fontSize=24;curved=1;jumpStyle=none;entryX=0.5;entryY=1;entryDx=0;entryDy=0;edgeStyle=orthogonalEdgeStyle;rounded=1;" parent="1" edge="1">
          <mxGeometry width="50" height="50" relative="1" as="geometry">
            <mxPoint x="819.76" y="680.0000000000005" as="sourcePoint" />
            <mxPoint x="794.76" y="650.0000000000005" as="targetPoint" />
          </mxGeometry>
        </mxCell>
        <mxCell id="204" value="" style="endArrow=none;html=1;fontSize=24;curved=1;jumpStyle=none;entryX=0.5;entryY=1;entryDx=0;entryDy=0;edgeStyle=orthogonalEdgeStyle;rounded=1;" parent="1" edge="1">
          <mxGeometry width="50" height="50" relative="1" as="geometry">
            <mxPoint x="779.76" y="680.0000000000005" as="sourcePoint" />
            <mxPoint x="754.76" y="650.0000000000005" as="targetPoint" />
          </mxGeometry>
        </mxCell>
        <mxCell id="205" value="" style="endArrow=none;html=1;fontSize=24;curved=1;jumpStyle=none;entryX=0.5;entryY=1;entryDx=0;entryDy=0;edgeStyle=orthogonalEdgeStyle;rounded=1;" parent="1" edge="1">
          <mxGeometry width="50" height="50" relative="1" as="geometry">
            <mxPoint x="739.76" y="680.0000000000005" as="sourcePoint" />
            <mxPoint x="714.76" y="650.0000000000005" as="targetPoint" />
          </mxGeometry>
        </mxCell>
        <mxCell id="206" value="" style="endArrow=none;html=1;fontSize=24;curved=1;jumpStyle=none;entryX=0.5;entryY=1;entryDx=0;entryDy=0;edgeStyle=orthogonalEdgeStyle;rounded=1;" parent="1" edge="1">
          <mxGeometry width="50" height="50" relative="1" as="geometry">
            <mxPoint x="699.76" y="680.0000000000005" as="sourcePoint" />
            <mxPoint x="674.76" y="650.0000000000005" as="targetPoint" />
            <Array as="points">
              <mxPoint x="674.76" y="680" />
            </Array>
          </mxGeometry>
        </mxCell>
        <mxCell id="217" value="" style="endArrow=none;html=1;fontSize=24;curved=1;jumpStyle=none;edgeStyle=orthogonalEdgeStyle;rounded=1;" parent="1" edge="1">
          <mxGeometry width="50" height="50" relative="1" as="geometry">
            <mxPoint x="1079.76" y="680" as="sourcePoint" />
            <mxPoint x="1109.76" y="710" as="targetPoint" />
          </mxGeometry>
        </mxCell>
        <mxCell id="218" value="" style="endArrow=none;html=1;fontSize=24;curved=1;jumpStyle=none;edgeStyle=orthogonalEdgeStyle;rounded=1;" parent="1" edge="1">
          <mxGeometry width="50" height="50" relative="1" as="geometry">
            <mxPoint x="1079.76" y="540" as="sourcePoint" />
            <mxPoint x="1109.76" y="570" as="targetPoint" />
          </mxGeometry>
        </mxCell>
        <mxCell id="219" value="" style="endArrow=none;html=1;fontSize=24;rounded=1;" parent="1" edge="1">
          <mxGeometry width="50" height="50" relative="1" as="geometry">
            <mxPoint x="639.76" y="810" as="sourcePoint" />
            <mxPoint x="1079.76" y="810" as="targetPoint" />
          </mxGeometry>
        </mxCell>
        <mxCell id="220" value="" style="endArrow=none;html=1;fontSize=24;rounded=1;" parent="1" edge="1">
          <mxGeometry width="50" height="50" relative="1" as="geometry">
            <mxPoint x="639.76" y="730" as="sourcePoint" />
            <mxPoint x="1019.76" y="730" as="targetPoint" />
          </mxGeometry>
        </mxCell>
        <mxCell id="221" value="" style="endArrow=none;html=1;fontSize=24;jumpStyle=none;edgeStyle=orthogonalEdgeStyle;curved=1;rounded=1;" parent="1" edge="1">
          <mxGeometry width="50" height="50" relative="1" as="geometry">
            <mxPoint x="639.76" y="730" as="sourcePoint" />
            <mxPoint x="609.76" y="700" as="targetPoint" />
          </mxGeometry>
        </mxCell>
        <mxCell id="222" value="" style="endArrow=none;html=1;fontSize=24;curved=1;jumpStyle=none;edgeStyle=orthogonalEdgeStyle;rounded=1;" parent="1" edge="1">
          <mxGeometry width="50" height="50" relative="1" as="geometry">
            <mxPoint x="639.76" y="810" as="sourcePoint" />
            <mxPoint x="609.76" y="780" as="targetPoint" />
          </mxGeometry>
        </mxCell>
        <mxCell id="223" value="" style="endArrow=none;html=1;fontSize=24;jumpStyle=none;entryX=0.5;entryY=0;entryDx=0;entryDy=0;edgeStyle=orthogonalEdgeStyle;curved=1;rounded=1;" parent="1" edge="1">
          <mxGeometry width="50" height="50" relative="1" as="geometry">
            <mxPoint x="1012.26" y="730.0000000000005" as="sourcePoint" />
            <mxPoint x="1037.26" y="750.0000000000005" as="targetPoint" />
          </mxGeometry>
        </mxCell>
        <mxCell id="224" value="" style="endArrow=none;html=1;fontSize=24;jumpStyle=none;entryX=0.5;entryY=0;entryDx=0;entryDy=0;edgeStyle=orthogonalEdgeStyle;curved=1;rounded=1;" parent="1" edge="1">
          <mxGeometry width="50" height="50" relative="1" as="geometry">
            <mxPoint x="652.26" y="730.0000000000005" as="sourcePoint" />
            <mxPoint x="677.26" y="750.0000000000005" as="targetPoint" />
          </mxGeometry>
        </mxCell>
        <mxCell id="225" value="" style="endArrow=none;html=1;fontSize=24;jumpStyle=none;entryX=0.5;entryY=0;entryDx=0;entryDy=0;edgeStyle=orthogonalEdgeStyle;curved=1;rounded=1;" parent="1" edge="1">
          <mxGeometry width="50" height="50" relative="1" as="geometry">
            <mxPoint x="692.26" y="730.0000000000005" as="sourcePoint" />
            <mxPoint x="717.26" y="750.0000000000005" as="targetPoint" />
          </mxGeometry>
        </mxCell>
        <mxCell id="226" value="" style="endArrow=none;html=1;fontSize=24;jumpStyle=none;entryX=0.5;entryY=0;entryDx=0;entryDy=0;edgeStyle=orthogonalEdgeStyle;curved=1;rounded=1;" parent="1" edge="1">
          <mxGeometry width="50" height="50" relative="1" as="geometry">
            <mxPoint x="732.26" y="730.0000000000005" as="sourcePoint" />
            <mxPoint x="757.26" y="750.0000000000005" as="targetPoint" />
          </mxGeometry>
        </mxCell>
        <mxCell id="227" value="" style="endArrow=none;html=1;fontSize=24;jumpStyle=none;entryX=0.5;entryY=0;entryDx=0;entryDy=0;edgeStyle=orthogonalEdgeStyle;curved=1;rounded=1;" parent="1" edge="1">
          <mxGeometry width="50" height="50" relative="1" as="geometry">
            <mxPoint x="772.26" y="730.0000000000005" as="sourcePoint" />
            <mxPoint x="797.26" y="750.0000000000005" as="targetPoint" />
          </mxGeometry>
        </mxCell>
        <mxCell id="228" value="" style="endArrow=none;html=1;fontSize=24;jumpStyle=none;entryX=0.5;entryY=0;entryDx=0;entryDy=0;edgeStyle=orthogonalEdgeStyle;curved=1;rounded=1;" parent="1" edge="1">
          <mxGeometry width="50" height="50" relative="1" as="geometry">
            <mxPoint x="812.26" y="730.0000000000005" as="sourcePoint" />
            <mxPoint x="837.26" y="750.0000000000005" as="targetPoint" />
          </mxGeometry>
        </mxCell>
        <mxCell id="229" value="" style="endArrow=none;html=1;fontSize=24;jumpStyle=none;entryX=0.5;entryY=0;entryDx=0;entryDy=0;edgeStyle=orthogonalEdgeStyle;curved=1;rounded=1;" parent="1" edge="1">
          <mxGeometry width="50" height="50" relative="1" as="geometry">
            <mxPoint x="852.26" y="730.0000000000005" as="sourcePoint" />
            <mxPoint x="877.26" y="750.0000000000005" as="targetPoint" />
          </mxGeometry>
        </mxCell>
        <mxCell id="230" value="" style="endArrow=none;html=1;fontSize=24;jumpStyle=none;entryX=0.5;entryY=0;entryDx=0;entryDy=0;edgeStyle=orthogonalEdgeStyle;curved=1;rounded=1;" parent="1" edge="1">
          <mxGeometry width="50" height="50" relative="1" as="geometry">
            <mxPoint x="892.26" y="730.0000000000005" as="sourcePoint" />
            <mxPoint x="917.26" y="750.0000000000005" as="targetPoint" />
          </mxGeometry>
        </mxCell>
        <mxCell id="231" value="" style="endArrow=none;html=1;fontSize=24;jumpStyle=none;entryX=0.5;entryY=0;entryDx=0;entryDy=0;edgeStyle=orthogonalEdgeStyle;curved=1;rounded=1;" parent="1" edge="1">
          <mxGeometry width="50" height="50" relative="1" as="geometry">
            <mxPoint x="932.26" y="730.0000000000005" as="sourcePoint" />
            <mxPoint x="957.26" y="750.0000000000005" as="targetPoint" />
          </mxGeometry>
        </mxCell>
        <mxCell id="232" value="" style="endArrow=none;html=1;fontSize=24;jumpStyle=none;entryX=0.5;entryY=0;entryDx=0;entryDy=0;edgeStyle=orthogonalEdgeStyle;curved=1;rounded=1;" parent="1" edge="1">
          <mxGeometry width="50" height="50" relative="1" as="geometry">
            <mxPoint x="972.26" y="730.0000000000005" as="sourcePoint" />
            <mxPoint x="997.26" y="750.0000000000005" as="targetPoint" />
          </mxGeometry>
        </mxCell>
        <mxCell id="233" value="" style="endArrow=none;html=1;fontSize=24;curved=1;jumpStyle=none;entryX=0.5;entryY=1;entryDx=0;entryDy=0;edgeStyle=orthogonalEdgeStyle;rounded=1;" parent="1" edge="1">
          <mxGeometry width="50" height="50" relative="1" as="geometry">
            <mxPoint x="1059.76" y="810.0000000000005" as="sourcePoint" />
            <mxPoint x="1034.76" y="780.0000000000005" as="targetPoint" />
          </mxGeometry>
        </mxCell>
        <mxCell id="234" value="" style="endArrow=none;html=1;fontSize=24;curved=1;jumpStyle=none;entryX=0.5;entryY=1;entryDx=0;entryDy=0;edgeStyle=orthogonalEdgeStyle;rounded=1;" parent="1" edge="1">
          <mxGeometry width="50" height="50" relative="1" as="geometry">
            <mxPoint x="1019.76" y="810.0000000000005" as="sourcePoint" />
            <mxPoint x="994.76" y="780.0000000000005" as="targetPoint" />
          </mxGeometry>
        </mxCell>
        <mxCell id="235" value="" style="endArrow=none;html=1;fontSize=24;curved=1;jumpStyle=none;entryX=0.5;entryY=1;entryDx=0;entryDy=0;edgeStyle=orthogonalEdgeStyle;rounded=1;" parent="1" edge="1">
          <mxGeometry width="50" height="50" relative="1" as="geometry">
            <mxPoint x="979.76" y="810.0000000000005" as="sourcePoint" />
            <mxPoint x="954.76" y="780.0000000000005" as="targetPoint" />
          </mxGeometry>
        </mxCell>
        <mxCell id="236" value="" style="endArrow=none;html=1;fontSize=24;curved=1;jumpStyle=none;entryX=0.5;entryY=1;entryDx=0;entryDy=0;edgeStyle=orthogonalEdgeStyle;rounded=1;" parent="1" edge="1">
          <mxGeometry width="50" height="50" relative="1" as="geometry">
            <mxPoint x="939.76" y="810.0000000000005" as="sourcePoint" />
            <mxPoint x="914.76" y="780.0000000000005" as="targetPoint" />
          </mxGeometry>
        </mxCell>
        <mxCell id="237" value="" style="endArrow=none;html=1;fontSize=24;curved=1;jumpStyle=none;entryX=0.5;entryY=1;entryDx=0;entryDy=0;edgeStyle=orthogonalEdgeStyle;rounded=1;" parent="1" edge="1">
          <mxGeometry width="50" height="50" relative="1" as="geometry">
            <mxPoint x="899.76" y="810.0000000000005" as="sourcePoint" />
            <mxPoint x="874.76" y="780.0000000000005" as="targetPoint" />
            <Array as="points">
              <mxPoint x="875.2299999999998" y="810" />
            </Array>
          </mxGeometry>
        </mxCell>
        <mxCell id="238" value="" style="endArrow=none;html=1;fontSize=24;curved=1;jumpStyle=none;entryX=0.5;entryY=1;entryDx=0;entryDy=0;edgeStyle=orthogonalEdgeStyle;rounded=1;" parent="1" edge="1">
          <mxGeometry width="50" height="50" relative="1" as="geometry">
            <mxPoint x="859.76" y="810.0000000000005" as="sourcePoint" />
            <mxPoint x="834.76" y="780.0000000000005" as="targetPoint" />
          </mxGeometry>
        </mxCell>
        <mxCell id="239" value="" style="endArrow=none;html=1;fontSize=24;curved=1;jumpStyle=none;entryX=0.5;entryY=1;entryDx=0;entryDy=0;edgeStyle=orthogonalEdgeStyle;rounded=1;" parent="1" edge="1">
          <mxGeometry width="50" height="50" relative="1" as="geometry">
            <mxPoint x="819.76" y="810.0000000000005" as="sourcePoint" />
            <mxPoint x="794.76" y="780.0000000000005" as="targetPoint" />
          </mxGeometry>
        </mxCell>
        <mxCell id="240" value="" style="endArrow=none;html=1;fontSize=24;curved=1;jumpStyle=none;entryX=0.5;entryY=1;entryDx=0;entryDy=0;edgeStyle=orthogonalEdgeStyle;rounded=1;" parent="1" edge="1">
          <mxGeometry width="50" height="50" relative="1" as="geometry">
            <mxPoint x="779.76" y="810.0000000000005" as="sourcePoint" />
            <mxPoint x="754.76" y="780.0000000000005" as="targetPoint" />
          </mxGeometry>
        </mxCell>
        <mxCell id="241" value="" style="endArrow=none;html=1;fontSize=24;curved=1;jumpStyle=none;entryX=0.5;entryY=1;entryDx=0;entryDy=0;edgeStyle=orthogonalEdgeStyle;rounded=1;" parent="1" edge="1">
          <mxGeometry width="50" height="50" relative="1" as="geometry">
            <mxPoint x="739.76" y="810.0000000000005" as="sourcePoint" />
            <mxPoint x="714.76" y="780.0000000000005" as="targetPoint" />
          </mxGeometry>
        </mxCell>
        <mxCell id="242" value="" style="endArrow=none;html=1;fontSize=24;curved=1;jumpStyle=none;entryX=0.5;entryY=1;entryDx=0;entryDy=0;edgeStyle=orthogonalEdgeStyle;rounded=1;" parent="1" edge="1">
          <mxGeometry width="50" height="50" relative="1" as="geometry">
            <mxPoint x="699.76" y="810.0000000000005" as="sourcePoint" />
            <mxPoint x="674.76" y="780.0000000000005" as="targetPoint" />
            <Array as="points">
              <mxPoint x="674.76" y="810" />
            </Array>
          </mxGeometry>
        </mxCell>
        <mxCell id="243" value="" style="endArrow=none;html=1;fontSize=24;curved=1;jumpStyle=none;edgeStyle=orthogonalEdgeStyle;rounded=1;" parent="1" edge="1">
          <mxGeometry width="50" height="50" relative="1" as="geometry">
            <mxPoint x="1079.76" y="810" as="sourcePoint" />
            <mxPoint x="1109.76" y="840" as="targetPoint" />
          </mxGeometry>
        </mxCell>
        <mxCell id="244" value="" style="endArrow=none;html=1;fontSize=24;curved=1;jumpStyle=none;edgeStyle=orthogonalEdgeStyle;rounded=1;" parent="1" edge="1">
          <mxGeometry width="50" height="50" relative="1" as="geometry">
            <mxPoint x="1079.76" y="680" as="sourcePoint" />
            <mxPoint x="1109.76" y="710" as="targetPoint" />
          </mxGeometry>
        </mxCell>
        <mxCell id="245" value="" style="endArrow=none;html=1;fontSize=24;rounded=1;" parent="1" edge="1">
          <mxGeometry width="50" height="50" relative="1" as="geometry">
            <mxPoint x="639.7900000000002" y="960" as="sourcePoint" />
            <mxPoint x="1079.7900000000002" y="960" as="targetPoint" />
          </mxGeometry>
        </mxCell>
        <mxCell id="246" value="" style="endArrow=none;html=1;fontSize=24;rounded=1;" parent="1" edge="1">
          <mxGeometry width="50" height="50" relative="1" as="geometry">
            <mxPoint x="639.7900000000002" y="880" as="sourcePoint" />
            <mxPoint x="1019.7900000000002" y="880" as="targetPoint" />
          </mxGeometry>
        </mxCell>
        <mxCell id="247" value="" style="endArrow=none;html=1;fontSize=24;curved=1;jumpStyle=none;edgeStyle=orthogonalEdgeStyle;rounded=1;" parent="1" edge="1">
          <mxGeometry width="50" height="50" relative="1" as="geometry">
            <mxPoint x="639.7900000000002" y="960" as="sourcePoint" />
            <mxPoint x="609.7900000000002" y="930" as="targetPoint" />
          </mxGeometry>
        </mxCell>
        <mxCell id="248" value="" style="endArrow=none;html=1;fontSize=24;jumpStyle=none;entryX=0.5;entryY=0;entryDx=0;entryDy=0;edgeStyle=orthogonalEdgeStyle;curved=1;rounded=1;" parent="1" edge="1">
          <mxGeometry width="50" height="50" relative="1" as="geometry">
            <mxPoint x="1012.2900000000002" y="880.0000000000005" as="sourcePoint" />
            <mxPoint x="1037.2900000000002" y="900.0000000000005" as="targetPoint" />
          </mxGeometry>
        </mxCell>
        <mxCell id="249" value="" style="endArrow=none;html=1;fontSize=24;jumpStyle=none;entryX=0.5;entryY=0;entryDx=0;entryDy=0;edgeStyle=orthogonalEdgeStyle;curved=1;rounded=1;" parent="1" edge="1">
          <mxGeometry width="50" height="50" relative="1" as="geometry">
            <mxPoint x="652.2900000000002" y="880.0000000000005" as="sourcePoint" />
            <mxPoint x="677.2900000000002" y="900.0000000000005" as="targetPoint" />
          </mxGeometry>
        </mxCell>
        <mxCell id="250" value="" style="endArrow=none;html=1;fontSize=24;jumpStyle=none;entryX=0.5;entryY=0;entryDx=0;entryDy=0;edgeStyle=orthogonalEdgeStyle;curved=1;rounded=1;" parent="1" edge="1">
          <mxGeometry width="50" height="50" relative="1" as="geometry">
            <mxPoint x="692.2900000000002" y="880.0000000000005" as="sourcePoint" />
            <mxPoint x="717.2900000000002" y="900.0000000000005" as="targetPoint" />
          </mxGeometry>
        </mxCell>
        <mxCell id="251" value="" style="endArrow=none;html=1;fontSize=24;jumpStyle=none;entryX=0.5;entryY=0;entryDx=0;entryDy=0;edgeStyle=orthogonalEdgeStyle;curved=1;rounded=1;" parent="1" edge="1">
          <mxGeometry width="50" height="50" relative="1" as="geometry">
            <mxPoint x="732.2900000000002" y="880.0000000000005" as="sourcePoint" />
            <mxPoint x="757.2900000000002" y="900.0000000000005" as="targetPoint" />
          </mxGeometry>
        </mxCell>
        <mxCell id="252" value="" style="endArrow=none;html=1;fontSize=24;jumpStyle=none;entryX=0.5;entryY=0;entryDx=0;entryDy=0;edgeStyle=orthogonalEdgeStyle;curved=1;rounded=1;" parent="1" edge="1">
          <mxGeometry width="50" height="50" relative="1" as="geometry">
            <mxPoint x="772.2900000000002" y="880.0000000000005" as="sourcePoint" />
            <mxPoint x="797.2900000000002" y="900.0000000000005" as="targetPoint" />
          </mxGeometry>
        </mxCell>
        <mxCell id="253" value="" style="endArrow=none;html=1;fontSize=24;jumpStyle=none;entryX=0.5;entryY=0;entryDx=0;entryDy=0;edgeStyle=orthogonalEdgeStyle;curved=1;rounded=1;" parent="1" edge="1">
          <mxGeometry width="50" height="50" relative="1" as="geometry">
            <mxPoint x="812.2900000000002" y="880.0000000000005" as="sourcePoint" />
            <mxPoint x="837.2900000000002" y="900.0000000000005" as="targetPoint" />
          </mxGeometry>
        </mxCell>
        <mxCell id="254" value="" style="endArrow=none;html=1;fontSize=24;jumpStyle=none;entryX=0.5;entryY=0;entryDx=0;entryDy=0;edgeStyle=orthogonalEdgeStyle;curved=1;rounded=1;" parent="1" edge="1">
          <mxGeometry width="50" height="50" relative="1" as="geometry">
            <mxPoint x="852.2900000000002" y="880.0000000000005" as="sourcePoint" />
            <mxPoint x="877.2900000000002" y="900.0000000000005" as="targetPoint" />
          </mxGeometry>
        </mxCell>
        <mxCell id="255" value="" style="endArrow=none;html=1;fontSize=24;jumpStyle=none;entryX=0.5;entryY=0;entryDx=0;entryDy=0;edgeStyle=orthogonalEdgeStyle;curved=1;rounded=1;" parent="1" edge="1">
          <mxGeometry width="50" height="50" relative="1" as="geometry">
            <mxPoint x="892.2900000000002" y="880.0000000000005" as="sourcePoint" />
            <mxPoint x="917.2900000000002" y="900.0000000000005" as="targetPoint" />
          </mxGeometry>
        </mxCell>
        <mxCell id="256" value="" style="endArrow=none;html=1;fontSize=24;jumpStyle=none;entryX=0.5;entryY=0;entryDx=0;entryDy=0;edgeStyle=orthogonalEdgeStyle;curved=1;rounded=1;" parent="1" edge="1">
          <mxGeometry width="50" height="50" relative="1" as="geometry">
            <mxPoint x="932.2900000000002" y="880.0000000000005" as="sourcePoint" />
            <mxPoint x="957.2900000000002" y="900.0000000000005" as="targetPoint" />
          </mxGeometry>
        </mxCell>
        <mxCell id="257" value="" style="endArrow=none;html=1;fontSize=24;jumpStyle=none;entryX=0.5;entryY=0;entryDx=0;entryDy=0;edgeStyle=orthogonalEdgeStyle;curved=1;rounded=1;" parent="1" edge="1">
          <mxGeometry width="50" height="50" relative="1" as="geometry">
            <mxPoint x="972.2900000000002" y="880.0000000000005" as="sourcePoint" />
            <mxPoint x="997.2900000000002" y="900.0000000000005" as="targetPoint" />
          </mxGeometry>
        </mxCell>
        <mxCell id="258" value="" style="endArrow=none;html=1;fontSize=24;curved=1;jumpStyle=none;entryX=0.5;entryY=1;entryDx=0;entryDy=0;edgeStyle=orthogonalEdgeStyle;rounded=1;" parent="1" edge="1">
          <mxGeometry width="50" height="50" relative="1" as="geometry">
            <mxPoint x="1059.7900000000002" y="960.0000000000005" as="sourcePoint" />
            <mxPoint x="1034.7900000000002" y="930.0000000000005" as="targetPoint" />
          </mxGeometry>
        </mxCell>
        <mxCell id="259" value="" style="endArrow=none;html=1;fontSize=24;curved=1;jumpStyle=none;entryX=0.5;entryY=1;entryDx=0;entryDy=0;edgeStyle=orthogonalEdgeStyle;rounded=1;" parent="1" edge="1">
          <mxGeometry width="50" height="50" relative="1" as="geometry">
            <mxPoint x="1019.7900000000002" y="960.0000000000005" as="sourcePoint" />
            <mxPoint x="994.7900000000002" y="930.0000000000005" as="targetPoint" />
          </mxGeometry>
        </mxCell>
        <mxCell id="260" value="" style="endArrow=none;html=1;fontSize=24;curved=1;jumpStyle=none;entryX=0.5;entryY=1;entryDx=0;entryDy=0;edgeStyle=orthogonalEdgeStyle;rounded=1;" parent="1" edge="1">
          <mxGeometry width="50" height="50" relative="1" as="geometry">
            <mxPoint x="979.7900000000002" y="960.0000000000005" as="sourcePoint" />
            <mxPoint x="954.7900000000002" y="930.0000000000005" as="targetPoint" />
          </mxGeometry>
        </mxCell>
        <mxCell id="261" value="" style="endArrow=none;html=1;fontSize=24;curved=1;jumpStyle=none;entryX=0.5;entryY=1;entryDx=0;entryDy=0;edgeStyle=orthogonalEdgeStyle;rounded=1;" parent="1" edge="1">
          <mxGeometry width="50" height="50" relative="1" as="geometry">
            <mxPoint x="939.7900000000002" y="960.0000000000005" as="sourcePoint" />
            <mxPoint x="914.7900000000002" y="930.0000000000005" as="targetPoint" />
          </mxGeometry>
        </mxCell>
        <mxCell id="262" value="" style="endArrow=none;html=1;fontSize=24;curved=1;jumpStyle=none;entryX=0.5;entryY=1;entryDx=0;entryDy=0;edgeStyle=orthogonalEdgeStyle;rounded=1;" parent="1" edge="1">
          <mxGeometry width="50" height="50" relative="1" as="geometry">
            <mxPoint x="899.7900000000002" y="960.0000000000005" as="sourcePoint" />
            <mxPoint x="874.7900000000002" y="930.0000000000005" as="targetPoint" />
            <Array as="points">
              <mxPoint x="875.26" y="960" />
            </Array>
          </mxGeometry>
        </mxCell>
        <mxCell id="263" value="" style="endArrow=none;html=1;fontSize=24;curved=1;jumpStyle=none;entryX=0.5;entryY=1;entryDx=0;entryDy=0;edgeStyle=orthogonalEdgeStyle;rounded=1;" parent="1" edge="1">
          <mxGeometry width="50" height="50" relative="1" as="geometry">
            <mxPoint x="859.7900000000002" y="960.0000000000005" as="sourcePoint" />
            <mxPoint x="834.7900000000002" y="930.0000000000005" as="targetPoint" />
          </mxGeometry>
        </mxCell>
        <mxCell id="264" value="" style="endArrow=none;html=1;fontSize=24;curved=1;jumpStyle=none;entryX=0.5;entryY=1;entryDx=0;entryDy=0;edgeStyle=orthogonalEdgeStyle;rounded=1;" parent="1" edge="1">
          <mxGeometry width="50" height="50" relative="1" as="geometry">
            <mxPoint x="819.7900000000002" y="960.0000000000005" as="sourcePoint" />
            <mxPoint x="794.7900000000002" y="930.0000000000005" as="targetPoint" />
          </mxGeometry>
        </mxCell>
        <mxCell id="265" value="" style="endArrow=none;html=1;fontSize=24;curved=1;jumpStyle=none;entryX=0.5;entryY=1;entryDx=0;entryDy=0;edgeStyle=orthogonalEdgeStyle;rounded=1;" parent="1" edge="1">
          <mxGeometry width="50" height="50" relative="1" as="geometry">
            <mxPoint x="779.7900000000002" y="960.0000000000005" as="sourcePoint" />
            <mxPoint x="754.7900000000002" y="930.0000000000005" as="targetPoint" />
          </mxGeometry>
        </mxCell>
        <mxCell id="266" value="" style="endArrow=none;html=1;fontSize=24;curved=1;jumpStyle=none;entryX=0.5;entryY=1;entryDx=0;entryDy=0;edgeStyle=orthogonalEdgeStyle;rounded=1;" parent="1" edge="1">
          <mxGeometry width="50" height="50" relative="1" as="geometry">
            <mxPoint x="739.7900000000002" y="960.0000000000005" as="sourcePoint" />
            <mxPoint x="714.7900000000002" y="930.0000000000005" as="targetPoint" />
          </mxGeometry>
        </mxCell>
        <mxCell id="267" value="" style="endArrow=none;html=1;fontSize=24;curved=1;jumpStyle=none;entryX=0.5;entryY=1;entryDx=0;entryDy=0;edgeStyle=orthogonalEdgeStyle;rounded=1;" parent="1" edge="1">
          <mxGeometry width="50" height="50" relative="1" as="geometry">
            <mxPoint x="699.7900000000002" y="960.0000000000005" as="sourcePoint" />
            <mxPoint x="674.7900000000002" y="930.0000000000005" as="targetPoint" />
            <Array as="points">
              <mxPoint x="674.7900000000002" y="960" />
            </Array>
          </mxGeometry>
        </mxCell>
        <mxCell id="268" value="" style="endArrow=none;html=1;fontSize=24;curved=1;jumpStyle=none;edgeStyle=orthogonalEdgeStyle;rounded=1;" parent="1" edge="1">
          <mxGeometry width="50" height="50" relative="1" as="geometry">
            <mxPoint x="1079.7900000000002" y="960" as="sourcePoint" />
            <mxPoint x="1109.7900000000002" y="990" as="targetPoint" />
          </mxGeometry>
        </mxCell>
        <mxCell id="269" value="" style="endArrow=none;html=1;fontSize=24;jumpStyle=none;edgeStyle=orthogonalEdgeStyle;curved=1;rounded=1;" parent="1" edge="1">
          <mxGeometry width="50" height="50" relative="1" as="geometry">
            <mxPoint x="639.7900000000002" y="880" as="sourcePoint" />
            <mxPoint x="609.7900000000002" y="850" as="targetPoint" />
          </mxGeometry>
        </mxCell>
        <mxCell id="270" value="" style="endArrow=none;html=1;fontSize=24;rounded=1;" parent="1" edge="1">
          <mxGeometry width="50" height="50" relative="1" as="geometry">
            <mxPoint x="699.76" y="1130" as="sourcePoint" />
            <mxPoint x="1170" y="1130" as="targetPoint" />
          </mxGeometry>
        </mxCell>
        <mxCell id="271" value="" style="endArrow=none;html=1;fontSize=24;rounded=1;" parent="1" edge="1">
          <mxGeometry width="50" height="50" relative="1" as="geometry">
            <mxPoint x="639.7900000000002" y="1050" as="sourcePoint" />
            <mxPoint x="699.76" y="1050" as="targetPoint" />
          </mxGeometry>
        </mxCell>
        <mxCell id="274" value="" style="endArrow=none;html=1;fontSize=24;jumpStyle=none;entryX=0.5;entryY=0;entryDx=0;entryDy=0;edgeStyle=orthogonalEdgeStyle;curved=1;rounded=1;" parent="1" edge="1">
          <mxGeometry width="50" height="50" relative="1" as="geometry">
            <mxPoint x="652.2900000000002" y="1050.0000000000005" as="sourcePoint" />
            <mxPoint x="677.2900000000002" y="1070.0000000000005" as="targetPoint" />
          </mxGeometry>
        </mxCell>
        <mxCell id="275" value="" style="endArrow=none;html=1;fontSize=24;jumpStyle=none;entryX=0.5;entryY=0;entryDx=0;entryDy=0;edgeStyle=orthogonalEdgeStyle;curved=1;rounded=1;" parent="1" edge="1">
          <mxGeometry width="50" height="50" relative="1" as="geometry">
            <mxPoint x="692.2900000000002" y="1050.0000000000005" as="sourcePoint" />
            <mxPoint x="717.2900000000002" y="1070.0000000000005" as="targetPoint" />
          </mxGeometry>
        </mxCell>
        <mxCell id="291" value="" style="endArrow=none;html=1;fontSize=24;curved=1;jumpStyle=none;entryX=0.5;entryY=1;entryDx=0;entryDy=0;edgeStyle=orthogonalEdgeStyle;rounded=1;" parent="1" edge="1">
          <mxGeometry width="50" height="50" relative="1" as="geometry">
            <mxPoint x="739.7900000000002" y="1130.0000000000005" as="sourcePoint" />
            <mxPoint x="714.7900000000002" y="1100.0000000000005" as="targetPoint" />
          </mxGeometry>
        </mxCell>
        <mxCell id="292" value="" style="endArrow=none;html=1;fontSize=24;curved=1;jumpStyle=none;entryX=0.5;entryY=1;entryDx=0;entryDy=0;edgeStyle=orthogonalEdgeStyle;rounded=1;" parent="1" edge="1">
          <mxGeometry width="50" height="50" relative="1" as="geometry">
            <mxPoint x="699.7900000000002" y="1130.0000000000005" as="sourcePoint" />
            <mxPoint x="674.7900000000002" y="1100.0000000000005" as="targetPoint" />
            <Array as="points">
              <mxPoint x="674.7900000000002" y="1130" />
            </Array>
          </mxGeometry>
        </mxCell>
        <mxCell id="294" value="" style="endArrow=none;html=1;fontSize=24;jumpStyle=none;edgeStyle=orthogonalEdgeStyle;curved=1;rounded=1;" parent="1" edge="1">
          <mxGeometry width="50" height="50" relative="1" as="geometry">
            <mxPoint x="639.7900000000002" y="1050" as="sourcePoint" />
            <mxPoint x="609.7900000000002" y="1020" as="targetPoint" />
          </mxGeometry>
        </mxCell>
        <mxCell id="297" value="" style="endArrow=none;html=1;fontSize=24;curved=1;jumpStyle=none;edgeStyle=orthogonalEdgeStyle;rounded=1;" parent="1" edge="1">
          <mxGeometry width="50" height="50" relative="1" as="geometry">
            <mxPoint x="1139.76" y="1130" as="sourcePoint" />
            <mxPoint x="1109.76" y="1090" as="targetPoint" />
          </mxGeometry>
        </mxCell>
        <mxCell id="298" value="0" style="ellipse;whiteSpace=wrap;html=1;aspect=fixed;fillStyle=auto;rounded=1;" parent="1" vertex="1">
          <mxGeometry x="1405.24" y="360" width="30" height="30" as="geometry" />
        </mxCell>
        <mxCell id="299" value="1" style="ellipse;whiteSpace=wrap;html=1;aspect=fixed;fillStyle=auto;rounded=1;" parent="1" vertex="1">
          <mxGeometry x="1445.24" y="360" width="30" height="30" as="geometry" />
        </mxCell>
        <mxCell id="300" value="2" style="ellipse;whiteSpace=wrap;html=1;aspect=fixed;fillStyle=auto;rounded=1;" parent="1" vertex="1">
          <mxGeometry x="1485.24" y="360" width="30" height="30" as="geometry" />
        </mxCell>
        <mxCell id="301" value="3" style="ellipse;whiteSpace=wrap;html=1;aspect=fixed;fillStyle=auto;rounded=1;" parent="1" vertex="1">
          <mxGeometry x="1525.24" y="360" width="30" height="30" as="geometry" />
        </mxCell>
        <mxCell id="302" value="4" style="ellipse;whiteSpace=wrap;html=1;aspect=fixed;fillStyle=auto;rounded=1;" parent="1" vertex="1">
          <mxGeometry x="1565.24" y="360" width="30" height="30" as="geometry" />
        </mxCell>
        <mxCell id="303" value="5" style="ellipse;whiteSpace=wrap;html=1;aspect=fixed;fillStyle=auto;rounded=1;" parent="1" vertex="1">
          <mxGeometry x="1605.24" y="360" width="30" height="30" as="geometry" />
        </mxCell>
        <mxCell id="304" value="6" style="ellipse;whiteSpace=wrap;html=1;aspect=fixed;fillStyle=auto;rounded=1;" parent="1" vertex="1">
          <mxGeometry x="1645.24" y="360" width="30" height="30" as="geometry" />
        </mxCell>
        <mxCell id="305" value="7" style="ellipse;whiteSpace=wrap;html=1;aspect=fixed;fillStyle=auto;rounded=1;" parent="1" vertex="1">
          <mxGeometry x="1685.24" y="360" width="30" height="30" as="geometry" />
        </mxCell>
        <mxCell id="306" value="8" style="ellipse;whiteSpace=wrap;html=1;aspect=fixed;fillStyle=auto;rounded=1;" parent="1" vertex="1">
          <mxGeometry x="1725.24" y="360" width="30" height="30" as="geometry" />
        </mxCell>
        <mxCell id="307" value="9" style="ellipse;whiteSpace=wrap;html=1;aspect=fixed;fillStyle=auto;rounded=1;" parent="1" vertex="1">
          <mxGeometry x="1765.24" y="360" width="30" height="30" as="geometry" />
        </mxCell>
        <mxCell id="308" value="" style="endArrow=none;html=1;fontSize=24;jumpStyle=none;curved=1;rounded=1;" parent="1" edge="1">
          <mxGeometry width="50" height="50" relative="1" as="geometry">
            <mxPoint x="1375.24" y="340" as="sourcePoint" />
            <mxPoint x="1755.24" y="340" as="targetPoint" />
          </mxGeometry>
        </mxCell>
        <mxCell id="314" value="" style="endArrow=none;html=1;fontSize=24;jumpStyle=none;entryX=0.5;entryY=0;entryDx=0;entryDy=0;edgeStyle=orthogonalEdgeStyle;curved=1;rounded=1;" parent="1" target="307" edge="1">
          <mxGeometry width="50" height="50" relative="1" as="geometry">
            <mxPoint x="1755.24" y="340" as="sourcePoint" />
            <mxPoint x="1775.24" y="390" as="targetPoint" />
          </mxGeometry>
        </mxCell>
        <mxCell id="315" value="" style="endArrow=none;html=1;fontSize=24;curved=1;jumpStyle=none;entryX=0.5;entryY=1;entryDx=0;entryDy=0;edgeStyle=orthogonalEdgeStyle;rounded=1;" parent="1" target="307" edge="1">
          <mxGeometry width="50" height="50" relative="1" as="geometry">
            <mxPoint x="1805.24" y="420" as="sourcePoint" />
            <mxPoint x="1775.24" y="390" as="targetPoint" />
          </mxGeometry>
        </mxCell>
        <mxCell id="317" value="" style="endArrow=none;html=1;fontSize=24;jumpStyle=none;entryX=0.5;entryY=0;entryDx=0;entryDy=0;edgeStyle=orthogonalEdgeStyle;curved=1;rounded=1;" parent="1" edge="1">
          <mxGeometry width="50" height="50" relative="1" as="geometry">
            <mxPoint x="1715.24" y="340" as="sourcePoint" />
            <mxPoint x="1740.24" y="360" as="targetPoint" />
          </mxGeometry>
        </mxCell>
        <mxCell id="318" value="" style="endArrow=none;html=1;fontSize=24;jumpStyle=none;entryX=0.5;entryY=0;entryDx=0;entryDy=0;edgeStyle=orthogonalEdgeStyle;curved=1;rounded=1;" parent="1" edge="1">
          <mxGeometry width="50" height="50" relative="1" as="geometry">
            <mxPoint x="1675.24" y="340" as="sourcePoint" />
            <mxPoint x="1700.24" y="360" as="targetPoint" />
          </mxGeometry>
        </mxCell>
        <mxCell id="319" value="" style="endArrow=none;html=1;fontSize=24;jumpStyle=none;entryX=0.5;entryY=0;entryDx=0;entryDy=0;edgeStyle=orthogonalEdgeStyle;curved=1;rounded=1;" parent="1" edge="1">
          <mxGeometry width="50" height="50" relative="1" as="geometry">
            <mxPoint x="1635.24" y="340" as="sourcePoint" />
            <mxPoint x="1660.24" y="360" as="targetPoint" />
          </mxGeometry>
        </mxCell>
        <mxCell id="320" value="" style="endArrow=none;html=1;fontSize=24;jumpStyle=none;entryX=0.5;entryY=0;entryDx=0;entryDy=0;edgeStyle=orthogonalEdgeStyle;curved=1;rounded=1;" parent="1" edge="1">
          <mxGeometry width="50" height="50" relative="1" as="geometry">
            <mxPoint x="1595.24" y="340" as="sourcePoint" />
            <mxPoint x="1620.24" y="360" as="targetPoint" />
          </mxGeometry>
        </mxCell>
        <mxCell id="321" value="" style="endArrow=none;html=1;fontSize=24;jumpStyle=none;entryX=0.5;entryY=0;entryDx=0;entryDy=0;edgeStyle=orthogonalEdgeStyle;curved=1;rounded=1;" parent="1" edge="1">
          <mxGeometry width="50" height="50" relative="1" as="geometry">
            <mxPoint x="1555.24" y="340" as="sourcePoint" />
            <mxPoint x="1580.24" y="360" as="targetPoint" />
          </mxGeometry>
        </mxCell>
        <mxCell id="322" value="" style="endArrow=none;html=1;fontSize=24;jumpStyle=none;entryX=0.5;entryY=0;entryDx=0;entryDy=0;edgeStyle=orthogonalEdgeStyle;curved=1;rounded=1;" parent="1" edge="1">
          <mxGeometry width="50" height="50" relative="1" as="geometry">
            <mxPoint x="1515.24" y="340" as="sourcePoint" />
            <mxPoint x="1540.24" y="360" as="targetPoint" />
          </mxGeometry>
        </mxCell>
        <mxCell id="323" value="" style="endArrow=none;html=1;fontSize=24;jumpStyle=none;entryX=0.5;entryY=0;entryDx=0;entryDy=0;edgeStyle=orthogonalEdgeStyle;curved=1;rounded=1;" parent="1" edge="1">
          <mxGeometry width="50" height="50" relative="1" as="geometry">
            <mxPoint x="1475.24" y="340" as="sourcePoint" />
            <mxPoint x="1500.24" y="360" as="targetPoint" />
          </mxGeometry>
        </mxCell>
        <mxCell id="324" value="" style="endArrow=none;html=1;fontSize=24;jumpStyle=none;entryX=0.5;entryY=0;entryDx=0;entryDy=0;edgeStyle=orthogonalEdgeStyle;curved=1;rounded=1;" parent="1" edge="1">
          <mxGeometry width="50" height="50" relative="1" as="geometry">
            <mxPoint x="1435.24" y="340" as="sourcePoint" />
            <mxPoint x="1460.24" y="360" as="targetPoint" />
          </mxGeometry>
        </mxCell>
        <mxCell id="325" value="" style="endArrow=none;html=1;fontSize=24;jumpStyle=none;entryX=0.5;entryY=0;entryDx=0;entryDy=0;edgeStyle=orthogonalEdgeStyle;curved=1;rounded=1;" parent="1" edge="1">
          <mxGeometry width="50" height="50" relative="1" as="geometry">
            <mxPoint x="1395.24" y="340" as="sourcePoint" />
            <mxPoint x="1420.24" y="360" as="targetPoint" />
          </mxGeometry>
        </mxCell>
        <mxCell id="326" value="" style="endArrow=none;html=1;fontSize=24;curved=1;jumpStyle=none;entryX=0.5;entryY=1;entryDx=0;entryDy=0;edgeStyle=orthogonalEdgeStyle;rounded=1;" parent="1" edge="1">
          <mxGeometry width="50" height="50" relative="1" as="geometry">
            <mxPoint x="1765.24" y="420" as="sourcePoint" />
            <mxPoint x="1740.24" y="390" as="targetPoint" />
          </mxGeometry>
        </mxCell>
        <mxCell id="327" value="" style="endArrow=none;html=1;fontSize=24;curved=1;jumpStyle=none;entryX=0.5;entryY=1;entryDx=0;entryDy=0;edgeStyle=orthogonalEdgeStyle;rounded=1;" parent="1" edge="1">
          <mxGeometry width="50" height="50" relative="1" as="geometry">
            <mxPoint x="1725.24" y="420" as="sourcePoint" />
            <mxPoint x="1700.24" y="390" as="targetPoint" />
          </mxGeometry>
        </mxCell>
        <mxCell id="328" value="" style="endArrow=none;html=1;fontSize=24;curved=1;jumpStyle=none;entryX=0.5;entryY=1;entryDx=0;entryDy=0;edgeStyle=orthogonalEdgeStyle;rounded=1;" parent="1" edge="1">
          <mxGeometry width="50" height="50" relative="1" as="geometry">
            <mxPoint x="1685.24" y="420" as="sourcePoint" />
            <mxPoint x="1660.24" y="390" as="targetPoint" />
          </mxGeometry>
        </mxCell>
        <mxCell id="329" value="" style="endArrow=none;html=1;fontSize=24;curved=1;jumpStyle=none;entryX=0.5;entryY=1;entryDx=0;entryDy=0;edgeStyle=orthogonalEdgeStyle;rounded=1;" parent="1" edge="1">
          <mxGeometry width="50" height="50" relative="1" as="geometry">
            <mxPoint x="1645.24" y="420" as="sourcePoint" />
            <mxPoint x="1620.24" y="390" as="targetPoint" />
          </mxGeometry>
        </mxCell>
        <mxCell id="330" value="" style="endArrow=none;html=1;fontSize=24;curved=1;jumpStyle=none;entryX=0.5;entryY=1;entryDx=0;entryDy=0;edgeStyle=orthogonalEdgeStyle;rounded=1;" parent="1" edge="1">
          <mxGeometry width="50" height="50" relative="1" as="geometry">
            <mxPoint x="1605.24" y="420" as="sourcePoint" />
            <mxPoint x="1580.24" y="390" as="targetPoint" />
          </mxGeometry>
        </mxCell>
        <mxCell id="331" value="" style="endArrow=none;html=1;fontSize=24;curved=1;jumpStyle=none;entryX=0.5;entryY=1;entryDx=0;entryDy=0;edgeStyle=orthogonalEdgeStyle;rounded=1;" parent="1" edge="1">
          <mxGeometry width="50" height="50" relative="1" as="geometry">
            <mxPoint x="1565.24" y="420" as="sourcePoint" />
            <mxPoint x="1540.24" y="390" as="targetPoint" />
          </mxGeometry>
        </mxCell>
        <mxCell id="332" value="" style="endArrow=none;html=1;fontSize=24;curved=1;jumpStyle=none;entryX=0.5;entryY=1;entryDx=0;entryDy=0;edgeStyle=orthogonalEdgeStyle;rounded=1;" parent="1" edge="1">
          <mxGeometry width="50" height="50" relative="1" as="geometry">
            <mxPoint x="1525.24" y="420" as="sourcePoint" />
            <mxPoint x="1500.24" y="390" as="targetPoint" />
          </mxGeometry>
        </mxCell>
        <mxCell id="333" value="" style="endArrow=none;html=1;fontSize=24;curved=1;jumpStyle=none;entryX=0.5;entryY=1;entryDx=0;entryDy=0;edgeStyle=orthogonalEdgeStyle;rounded=1;" parent="1" edge="1">
          <mxGeometry width="50" height="50" relative="1" as="geometry">
            <mxPoint x="1485.24" y="420" as="sourcePoint" />
            <mxPoint x="1460.24" y="390" as="targetPoint" />
          </mxGeometry>
        </mxCell>
        <mxCell id="334" value="" style="endArrow=none;html=1;fontSize=24;curved=1;jumpStyle=none;entryX=0.5;entryY=1;entryDx=0;entryDy=0;edgeStyle=orthogonalEdgeStyle;rounded=1;" parent="1" edge="1">
          <mxGeometry width="50" height="50" relative="1" as="geometry">
            <mxPoint x="1445.24" y="420" as="sourcePoint" />
            <mxPoint x="1420.24" y="390" as="targetPoint" />
            <Array as="points">
              <mxPoint x="1420.24" y="420" />
            </Array>
          </mxGeometry>
        </mxCell>
        <mxCell id="335" value="" style="endArrow=none;html=1;fontSize=24;rounded=1;" parent="1" edge="1">
          <mxGeometry width="50" height="50" relative="1" as="geometry">
            <mxPoint x="1444.7699999999998" y="420" as="sourcePoint" />
            <mxPoint x="1854.7699999999998" y="420" as="targetPoint" />
          </mxGeometry>
        </mxCell>
        <mxCell id="336" value="" style="endArrow=none;html=1;fontSize=24;jumpStyle=none;entryX=0.5;entryY=0;entryDx=0;entryDy=0;edgeStyle=orthogonalEdgeStyle;curved=1;rounded=1;" parent="1" edge="1">
          <mxGeometry width="50" height="50" relative="1" as="geometry">
            <mxPoint x="1395.24" y="340.00000000000045" as="sourcePoint" />
            <mxPoint x="1420.24" y="360.00000000000045" as="targetPoint" />
          </mxGeometry>
        </mxCell>
        <mxCell id="337" value="" style="endArrow=none;html=1;fontSize=24;jumpStyle=none;entryX=0.5;entryY=0;entryDx=0;entryDy=0;edgeStyle=orthogonalEdgeStyle;curved=1;rounded=1;" parent="1" edge="1">
          <mxGeometry width="50" height="50" relative="1" as="geometry">
            <mxPoint x="1435.24" y="340.00000000000045" as="sourcePoint" />
            <mxPoint x="1460.24" y="360.00000000000045" as="targetPoint" />
          </mxGeometry>
        </mxCell>
        <mxCell id="338" value="" style="endArrow=none;html=1;fontSize=24;jumpStyle=none;entryX=0.5;entryY=0;entryDx=0;entryDy=0;edgeStyle=orthogonalEdgeStyle;curved=1;rounded=1;" parent="1" edge="1">
          <mxGeometry width="50" height="50" relative="1" as="geometry">
            <mxPoint x="1475.24" y="340.00000000000045" as="sourcePoint" />
            <mxPoint x="1500.24" y="360.00000000000045" as="targetPoint" />
          </mxGeometry>
        </mxCell>
        <mxCell id="339" value="" style="endArrow=none;html=1;fontSize=24;jumpStyle=none;entryX=0.5;entryY=0;entryDx=0;entryDy=0;edgeStyle=orthogonalEdgeStyle;curved=1;rounded=1;" parent="1" edge="1">
          <mxGeometry width="50" height="50" relative="1" as="geometry">
            <mxPoint x="1515.24" y="340.00000000000045" as="sourcePoint" />
            <mxPoint x="1540.24" y="360.00000000000045" as="targetPoint" />
          </mxGeometry>
        </mxCell>
        <mxCell id="340" value="" style="endArrow=none;html=1;fontSize=24;jumpStyle=none;entryX=0.5;entryY=0;entryDx=0;entryDy=0;edgeStyle=orthogonalEdgeStyle;curved=1;rounded=1;" parent="1" edge="1">
          <mxGeometry width="50" height="50" relative="1" as="geometry">
            <mxPoint x="1555.24" y="340.00000000000045" as="sourcePoint" />
            <mxPoint x="1580.24" y="360.00000000000045" as="targetPoint" />
          </mxGeometry>
        </mxCell>
        <mxCell id="341" value="" style="endArrow=none;html=1;fontSize=24;jumpStyle=none;entryX=0.5;entryY=0;entryDx=0;entryDy=0;edgeStyle=orthogonalEdgeStyle;curved=1;rounded=1;" parent="1" edge="1">
          <mxGeometry width="50" height="50" relative="1" as="geometry">
            <mxPoint x="1595.24" y="340.00000000000045" as="sourcePoint" />
            <mxPoint x="1620.24" y="360.00000000000045" as="targetPoint" />
          </mxGeometry>
        </mxCell>
        <mxCell id="342" value="" style="endArrow=none;html=1;fontSize=24;jumpStyle=none;entryX=0.5;entryY=0;entryDx=0;entryDy=0;edgeStyle=orthogonalEdgeStyle;curved=1;rounded=1;" parent="1" edge="1">
          <mxGeometry width="50" height="50" relative="1" as="geometry">
            <mxPoint x="1635.24" y="340.00000000000045" as="sourcePoint" />
            <mxPoint x="1660.24" y="360.00000000000045" as="targetPoint" />
          </mxGeometry>
        </mxCell>
        <mxCell id="343" value="" style="endArrow=none;html=1;fontSize=24;jumpStyle=none;entryX=0.5;entryY=0;entryDx=0;entryDy=0;edgeStyle=orthogonalEdgeStyle;curved=1;rounded=1;" parent="1" edge="1">
          <mxGeometry width="50" height="50" relative="1" as="geometry">
            <mxPoint x="1675.24" y="340.00000000000045" as="sourcePoint" />
            <mxPoint x="1700.24" y="360.00000000000045" as="targetPoint" />
          </mxGeometry>
        </mxCell>
        <mxCell id="344" value="" style="endArrow=none;html=1;fontSize=24;jumpStyle=none;entryX=0.5;entryY=0;entryDx=0;entryDy=0;edgeStyle=orthogonalEdgeStyle;curved=1;rounded=1;" parent="1" edge="1">
          <mxGeometry width="50" height="50" relative="1" as="geometry">
            <mxPoint x="1715.24" y="340.00000000000045" as="sourcePoint" />
            <mxPoint x="1740.24" y="360.00000000000045" as="targetPoint" />
          </mxGeometry>
        </mxCell>
        <mxCell id="345" value="" style="endArrow=none;html=1;fontSize=24;jumpStyle=none;entryX=0.5;entryY=0;entryDx=0;entryDy=0;edgeStyle=orthogonalEdgeStyle;curved=1;rounded=1;" parent="1" edge="1">
          <mxGeometry width="50" height="50" relative="1" as="geometry">
            <mxPoint x="1395.24" y="340.00000000000045" as="sourcePoint" />
            <mxPoint x="1420.24" y="360.00000000000045" as="targetPoint" />
          </mxGeometry>
        </mxCell>
        <mxCell id="346" value="" style="endArrow=none;html=1;fontSize=24;jumpStyle=none;entryX=0.5;entryY=0;entryDx=0;entryDy=0;edgeStyle=orthogonalEdgeStyle;curved=1;rounded=1;" parent="1" edge="1">
          <mxGeometry width="50" height="50" relative="1" as="geometry">
            <mxPoint x="1435.24" y="340.00000000000045" as="sourcePoint" />
            <mxPoint x="1460.24" y="360.00000000000045" as="targetPoint" />
          </mxGeometry>
        </mxCell>
        <mxCell id="347" value="" style="endArrow=none;html=1;fontSize=24;jumpStyle=none;entryX=0.5;entryY=0;entryDx=0;entryDy=0;edgeStyle=orthogonalEdgeStyle;curved=1;rounded=1;" parent="1" edge="1">
          <mxGeometry width="50" height="50" relative="1" as="geometry">
            <mxPoint x="1475.24" y="340.00000000000045" as="sourcePoint" />
            <mxPoint x="1500.24" y="360.00000000000045" as="targetPoint" />
          </mxGeometry>
        </mxCell>
        <mxCell id="348" value="" style="endArrow=none;html=1;fontSize=24;jumpStyle=none;entryX=0.5;entryY=0;entryDx=0;entryDy=0;edgeStyle=orthogonalEdgeStyle;curved=1;rounded=1;" parent="1" edge="1">
          <mxGeometry width="50" height="50" relative="1" as="geometry">
            <mxPoint x="1515.24" y="340.00000000000045" as="sourcePoint" />
            <mxPoint x="1540.24" y="360.00000000000045" as="targetPoint" />
          </mxGeometry>
        </mxCell>
        <mxCell id="349" value="" style="endArrow=none;html=1;fontSize=24;jumpStyle=none;entryX=0.5;entryY=0;entryDx=0;entryDy=0;edgeStyle=orthogonalEdgeStyle;curved=1;rounded=1;" parent="1" edge="1">
          <mxGeometry width="50" height="50" relative="1" as="geometry">
            <mxPoint x="1555.24" y="340.00000000000045" as="sourcePoint" />
            <mxPoint x="1580.24" y="360.00000000000045" as="targetPoint" />
          </mxGeometry>
        </mxCell>
        <mxCell id="350" value="" style="endArrow=none;html=1;fontSize=24;jumpStyle=none;entryX=0.5;entryY=0;entryDx=0;entryDy=0;edgeStyle=orthogonalEdgeStyle;curved=1;rounded=1;" parent="1" edge="1">
          <mxGeometry width="50" height="50" relative="1" as="geometry">
            <mxPoint x="1595.24" y="340.00000000000045" as="sourcePoint" />
            <mxPoint x="1620.24" y="360.00000000000045" as="targetPoint" />
          </mxGeometry>
        </mxCell>
        <mxCell id="351" value="" style="endArrow=none;html=1;fontSize=24;jumpStyle=none;entryX=0.5;entryY=0;entryDx=0;entryDy=0;edgeStyle=orthogonalEdgeStyle;curved=1;rounded=1;" parent="1" edge="1">
          <mxGeometry width="50" height="50" relative="1" as="geometry">
            <mxPoint x="1635.24" y="340.00000000000045" as="sourcePoint" />
            <mxPoint x="1660.24" y="360.00000000000045" as="targetPoint" />
          </mxGeometry>
        </mxCell>
        <mxCell id="352" value="" style="endArrow=none;html=1;fontSize=24;jumpStyle=none;entryX=0.5;entryY=0;entryDx=0;entryDy=0;edgeStyle=orthogonalEdgeStyle;curved=1;rounded=1;" parent="1" edge="1">
          <mxGeometry width="50" height="50" relative="1" as="geometry">
            <mxPoint x="1675.24" y="340.00000000000045" as="sourcePoint" />
            <mxPoint x="1700.24" y="360.00000000000045" as="targetPoint" />
          </mxGeometry>
        </mxCell>
        <mxCell id="353" value="" style="endArrow=none;html=1;fontSize=24;jumpStyle=none;entryX=0.5;entryY=0;entryDx=0;entryDy=0;edgeStyle=orthogonalEdgeStyle;curved=1;rounded=1;" parent="1" edge="1">
          <mxGeometry width="50" height="50" relative="1" as="geometry">
            <mxPoint x="1715.24" y="340.00000000000045" as="sourcePoint" />
            <mxPoint x="1740.24" y="360.00000000000045" as="targetPoint" />
          </mxGeometry>
        </mxCell>
        <mxCell id="363" value="Буквы" style="swimlane;whiteSpace=wrap;html=1;rounded=0;strokeWidth=3;fontSize=50;fillColor=none;startSize=70;" parent="1" vertex="1">
          <mxGeometry x="499.9999999999998" y="250" width="700" height="920" as="geometry" />
        </mxCell>
        <mxCell id="365" value="$ буква = &quot;A&quot;|&quot;B&quot;|&quot;C&quot;|&quot;D&quot;|&quot;E&quot;|&quot;F&quot;|&quot;G&quot;|&quot;H&quot;|&quot;I&quot;|&quot;J&quot;|&quot;K&quot;|&quot;L&quot;|&quot;M&quot;|&quot;N&quot;|&quot;O&quot;|&quot;P&quot;|&quot;Q&quot;|&quot;R&quot;|&quot;S&quot;|&quot;T&quot;|&quot;U&quot;|&quot;V&quot;|&quot;W&quot;|&quot;X&quot;|&quot;Y&quot;|&quot;Z&quot;|&quot;a&quot;|&quot;b&quot;|&quot;c&quot;|&quot;d&quot;|&quot;e&quot;|&quot;f&quot;|&quot;g&quot;|&quot;h&quot;|&quot;i&quot;|&quot;j&quot;|&quot;k&quot;|&quot;l&quot;|&quot;m&quot;|&quot;n&quot;|&quot;o&quot;|&quot;p&quot;|&quot;q&quot;|&quot;r&quot;|&quot;s&quot;|&quot;t&quot;|&quot;u&quot;|&quot;v&quot;|&quot;w&quot;|&quot;x&quot;|&quot;y&quot;|&quot;z&quot;." style="text;html=1;align=center;verticalAlign=middle;resizable=0;points=[];autosize=1;strokeColor=none;fillColor=none;fontSize=5;fontStyle=2" parent="363" vertex="1">
          <mxGeometry x="119.76000000000022" y="900" width="450" height="20" as="geometry" />
        </mxCell>
        <mxCell id="364" value="Операторы" style="swimlane;whiteSpace=wrap;html=1;rounded=0;strokeWidth=3;fontSize=50;fillColor=none;startSize=70;" parent="1" vertex="1">
          <mxGeometry x="1290.0000000000002" y="520" width="300" height="220" as="geometry" />
        </mxCell>
        <mxCell id="406" value="+" style="ellipse;whiteSpace=wrap;html=1;aspect=fixed;fillStyle=auto;rounded=1;" parent="364" vertex="1">
          <mxGeometry x="80" y="109.19999999999982" width="30" height="30" as="geometry" />
        </mxCell>
        <mxCell id="407" value="-" style="ellipse;whiteSpace=wrap;html=1;aspect=fixed;fillStyle=auto;rounded=1;" parent="364" vertex="1">
          <mxGeometry x="120" y="109.19999999999982" width="30" height="30" as="geometry" />
        </mxCell>
        <mxCell id="408" value="*" style="ellipse;whiteSpace=wrap;html=1;aspect=fixed;fillStyle=auto;rounded=1;" parent="364" vertex="1">
          <mxGeometry x="160" y="109.19999999999982" width="30" height="30" as="geometry" />
        </mxCell>
        <mxCell id="409" value="/" style="ellipse;whiteSpace=wrap;html=1;aspect=fixed;fillStyle=auto;rounded=1;" parent="364" vertex="1">
          <mxGeometry x="200" y="109.19999999999982" width="30" height="30" as="geometry" />
        </mxCell>
        <mxCell id="416" value="" style="endArrow=none;html=1;fontSize=24;jumpStyle=none;curved=1;rounded=1;" parent="364" edge="1">
          <mxGeometry width="50" height="50" relative="1" as="geometry">
            <mxPoint x="50" y="89.19999999999982" as="sourcePoint" />
            <mxPoint x="190" y="89.19999999999982" as="targetPoint" />
          </mxGeometry>
        </mxCell>
        <mxCell id="424" value="" style="endArrow=none;html=1;fontSize=24;jumpStyle=none;entryX=0.5;entryY=0;entryDx=0;entryDy=0;edgeStyle=orthogonalEdgeStyle;curved=1;rounded=1;" parent="364" edge="1">
          <mxGeometry width="50" height="50" relative="1" as="geometry">
            <mxPoint x="190" y="89.19999999999982" as="sourcePoint" />
            <mxPoint x="215" y="109.19999999999982" as="targetPoint" />
          </mxGeometry>
        </mxCell>
        <mxCell id="425" value="" style="endArrow=none;html=1;fontSize=24;jumpStyle=none;entryX=0.5;entryY=0;entryDx=0;entryDy=0;edgeStyle=orthogonalEdgeStyle;curved=1;rounded=1;" parent="364" edge="1">
          <mxGeometry width="50" height="50" relative="1" as="geometry">
            <mxPoint x="150" y="89.19999999999982" as="sourcePoint" />
            <mxPoint x="175" y="109.19999999999982" as="targetPoint" />
          </mxGeometry>
        </mxCell>
        <mxCell id="426" value="" style="endArrow=none;html=1;fontSize=24;jumpStyle=none;entryX=0.5;entryY=0;entryDx=0;entryDy=0;edgeStyle=orthogonalEdgeStyle;curved=1;rounded=1;" parent="364" edge="1">
          <mxGeometry width="50" height="50" relative="1" as="geometry">
            <mxPoint x="110" y="89.19999999999982" as="sourcePoint" />
            <mxPoint x="135" y="109.19999999999982" as="targetPoint" />
          </mxGeometry>
        </mxCell>
        <mxCell id="427" value="" style="endArrow=none;html=1;fontSize=24;jumpStyle=none;entryX=0.5;entryY=0;entryDx=0;entryDy=0;edgeStyle=orthogonalEdgeStyle;curved=1;rounded=1;" parent="364" edge="1">
          <mxGeometry width="50" height="50" relative="1" as="geometry">
            <mxPoint x="70" y="89.19999999999982" as="sourcePoint" />
            <mxPoint x="95" y="109.19999999999982" as="targetPoint" />
          </mxGeometry>
        </mxCell>
        <mxCell id="433" value="" style="endArrow=none;html=1;fontSize=24;curved=1;jumpStyle=none;entryX=0.5;entryY=1;entryDx=0;entryDy=0;edgeStyle=orthogonalEdgeStyle;rounded=1;" parent="364" edge="1">
          <mxGeometry width="50" height="50" relative="1" as="geometry">
            <mxPoint x="240" y="169.19999999999982" as="sourcePoint" />
            <mxPoint x="215" y="139.19999999999982" as="targetPoint" />
          </mxGeometry>
        </mxCell>
        <mxCell id="434" value="" style="endArrow=none;html=1;fontSize=24;curved=1;jumpStyle=none;entryX=0.5;entryY=1;entryDx=0;entryDy=0;edgeStyle=orthogonalEdgeStyle;rounded=1;" parent="364" edge="1">
          <mxGeometry width="50" height="50" relative="1" as="geometry">
            <mxPoint x="200" y="169.19999999999982" as="sourcePoint" />
            <mxPoint x="175" y="139.19999999999982" as="targetPoint" />
          </mxGeometry>
        </mxCell>
        <mxCell id="435" value="" style="endArrow=none;html=1;fontSize=24;curved=1;jumpStyle=none;entryX=0.5;entryY=1;entryDx=0;entryDy=0;edgeStyle=orthogonalEdgeStyle;rounded=1;" parent="364" edge="1">
          <mxGeometry width="50" height="50" relative="1" as="geometry">
            <mxPoint x="160" y="169.19999999999982" as="sourcePoint" />
            <mxPoint x="135" y="139.19999999999982" as="targetPoint" />
          </mxGeometry>
        </mxCell>
        <mxCell id="436" value="" style="endArrow=none;html=1;fontSize=24;curved=1;jumpStyle=none;entryX=0.5;entryY=1;entryDx=0;entryDy=0;edgeStyle=orthogonalEdgeStyle;rounded=1;" parent="364" edge="1">
          <mxGeometry width="50" height="50" relative="1" as="geometry">
            <mxPoint x="120" y="169.19999999999982" as="sourcePoint" />
            <mxPoint x="95" y="139.19999999999982" as="targetPoint" />
            <Array as="points">
              <mxPoint x="95" y="169.19999999999982" />
            </Array>
          </mxGeometry>
        </mxCell>
        <mxCell id="437" value="" style="endArrow=none;html=1;fontSize=24;rounded=1;" parent="364" edge="1">
          <mxGeometry width="50" height="50" relative="1" as="geometry">
            <mxPoint x="119.52999999999975" y="169.19999999999982" as="sourcePoint" />
            <mxPoint x="280" y="169.19999999999982" as="targetPoint" />
          </mxGeometry>
        </mxCell>
        <mxCell id="467" value="$ оператор = &quot;+&quot; | &quot;-&quot; | &quot;*&quot; | &quot;/&quot;." style="text;whiteSpace=wrap;html=1;fontSize=5;" parent="364" vertex="1">
          <mxGeometry x="120" y="190" width="70" height="20" as="geometry" />
        </mxCell>
        <mxCell id="469" value="" style="endArrow=none;html=1;fontSize=24;jumpStyle=none;curved=1;rounded=1;" parent="364" edge="1">
          <mxGeometry width="50" height="50" relative="1" as="geometry">
            <mxPoint x="50" y="89.19999999999982" as="sourcePoint" />
            <mxPoint x="190" y="89.19999999999982" as="targetPoint" />
          </mxGeometry>
        </mxCell>
        <mxCell id="470" value="" style="endArrow=none;html=1;fontSize=24;jumpStyle=none;entryX=0.5;entryY=0;entryDx=0;entryDy=0;edgeStyle=orthogonalEdgeStyle;curved=1;rounded=1;" parent="364" edge="1">
          <mxGeometry width="50" height="50" relative="1" as="geometry">
            <mxPoint x="70" y="89.19999999999982" as="sourcePoint" />
            <mxPoint x="95" y="109.19999999999982" as="targetPoint" />
          </mxGeometry>
        </mxCell>
        <mxCell id="471" value="+" style="ellipse;whiteSpace=wrap;html=1;aspect=fixed;fillStyle=auto;rounded=1;" parent="364" vertex="1">
          <mxGeometry x="80" y="109.19999999999982" width="30" height="30" as="geometry" />
        </mxCell>
        <mxCell id="367" value="" style="endArrow=none;html=1;rounded=1;fontSize=5;" parent="1" target="368" edge="1">
          <mxGeometry width="50" height="50" relative="1" as="geometry">
            <mxPoint x="579.76" y="1615" as="sourcePoint" />
            <mxPoint x="639.76" y="1615" as="targetPoint" />
          </mxGeometry>
        </mxCell>
        <mxCell id="369" style="edgeStyle=none;rounded=1;html=1;exitX=1;exitY=0.5;exitDx=0;exitDy=0;fontSize=12;endArrow=none;endFill=0;strokeWidth=1;" parent="1" source="368" edge="1">
          <mxGeometry relative="1" as="geometry">
            <mxPoint x="859.76" y="1615" as="targetPoint" />
          </mxGeometry>
        </mxCell>
        <mxCell id="368" value="буква" style="rounded=0;whiteSpace=wrap;html=1;strokeWidth=1;fontSize=12;fillColor=none;glass=0;" parent="1" vertex="1">
          <mxGeometry x="635.2399999999996" y="1605" width="49.76" height="20" as="geometry" />
        </mxCell>
        <mxCell id="375" style="edgeStyle=orthogonalEdgeStyle;rounded=1;html=1;fontSize=12;endArrow=none;endFill=0;exitX=0;exitY=0.5;exitDx=0;exitDy=0;" parent="1" source="371" edge="1">
          <mxGeometry relative="1" as="geometry">
            <mxPoint x="769.76" y="1615" as="targetPoint" />
            <mxPoint x="759.76" y="1645" as="sourcePoint" />
            <Array as="points">
              <mxPoint x="739.76" y="1645" />
              <mxPoint x="739.76" y="1615" />
            </Array>
          </mxGeometry>
        </mxCell>
        <mxCell id="371" value="цифра" style="rounded=0;whiteSpace=wrap;html=1;strokeWidth=1;fontSize=12;fillColor=none;glass=0;" parent="1" vertex="1">
          <mxGeometry x="755.2399999999996" y="1635" width="49.76" height="20" as="geometry" />
        </mxCell>
        <mxCell id="372" value="буква" style="rounded=0;whiteSpace=wrap;html=1;strokeWidth=1;fontSize=12;fillColor=none;glass=0;" parent="1" vertex="1">
          <mxGeometry x="754.9999999999998" y="1575" width="49.76" height="20" as="geometry" />
        </mxCell>
        <mxCell id="376" style="edgeStyle=orthogonalEdgeStyle;rounded=1;html=1;fontSize=12;endArrow=none;endFill=0;exitX=0;exitY=0.5;exitDx=0;exitDy=0;" parent="1" source="372" edge="1">
          <mxGeometry relative="1" as="geometry">
            <mxPoint x="769.76" y="1615" as="targetPoint" />
            <mxPoint x="749.76" y="1585" as="sourcePoint" />
            <Array as="points">
              <mxPoint x="739.76" y="1585" />
              <mxPoint x="739.76" y="1615" />
            </Array>
          </mxGeometry>
        </mxCell>
        <mxCell id="377" style="edgeStyle=orthogonalEdgeStyle;rounded=1;html=1;fontSize=12;endArrow=none;endFill=0;entryX=1;entryY=0.5;entryDx=0;entryDy=0;" parent="1" target="371" edge="1">
          <mxGeometry relative="1" as="geometry">
            <mxPoint x="829.76" y="1645" as="targetPoint" />
            <mxPoint x="799.76" y="1615" as="sourcePoint" />
            <Array as="points">
              <mxPoint x="819.76" y="1615" />
              <mxPoint x="819.76" y="1645" />
            </Array>
          </mxGeometry>
        </mxCell>
        <mxCell id="378" style="edgeStyle=orthogonalEdgeStyle;rounded=1;html=1;fontSize=12;endArrow=none;endFill=0;entryX=1;entryY=0.5;entryDx=0;entryDy=0;" parent="1" target="372" edge="1">
          <mxGeometry relative="1" as="geometry">
            <mxPoint x="844.9999999999998" y="1585" as="targetPoint" />
            <mxPoint x="799.76" y="1615" as="sourcePoint" />
            <Array as="points">
              <mxPoint x="819.76" y="1615" />
              <mxPoint x="819.76" y="1585" />
            </Array>
          </mxGeometry>
        </mxCell>
        <mxCell id="379" value="&lt;font style=&quot;font-size: 30px;&quot;&gt;Идентификатор&lt;/font&gt;" style="swimlane;whiteSpace=wrap;html=1;rounded=0;glass=0;strokeWidth=1;fontSize=12;fillColor=none;startSize=40;" parent="1" vertex="1">
          <mxGeometry x="559.76" y="1510" width="330" height="180" as="geometry" />
        </mxCell>
        <mxCell id="380" value="$ идентификатор = буква {буква | цифра}." style="text;whiteSpace=wrap;html=1;fontSize=5;fontStyle=2" parent="379" vertex="1">
          <mxGeometry x="100" y="160" width="110" height="20" as="geometry" />
        </mxCell>
        <mxCell id="381" value="" style="endArrow=none;html=1;rounded=1;strokeWidth=1;fontSize=5;" parent="1" edge="1">
          <mxGeometry width="50" height="50" relative="1" as="geometry">
            <mxPoint x="589.9999999999998" y="1900.02" as="sourcePoint" />
            <mxPoint x="814.7600000000002" y="1900.02" as="targetPoint" />
          </mxGeometry>
        </mxCell>
        <mxCell id="383" value="" style="endArrow=none;html=1;rounded=1;strokeWidth=1;fontSize=50;entryX=0;entryY=0.5;entryDx=0;entryDy=0;edgeStyle=orthogonalEdgeStyle;" parent="1" target="388" edge="1">
          <mxGeometry width="50" height="50" relative="1" as="geometry">
            <mxPoint x="644.7600000000002" y="1900.02" as="sourcePoint" />
            <mxPoint x="695.4799999999996" y="1860.02" as="targetPoint" />
            <Array as="points">
              <mxPoint x="677.7600000000002" y="1900.02" />
              <mxPoint x="677.7600000000002" y="1860.02" />
            </Array>
          </mxGeometry>
        </mxCell>
        <mxCell id="384" value="" style="endArrow=none;html=1;strokeWidth=1;fontSize=50;edgeStyle=orthogonalEdgeStyle;rounded=1;exitX=1;exitY=0.5;exitDx=0;exitDy=0;" parent="1" source="388" edge="1">
          <mxGeometry width="50" height="50" relative="1" as="geometry">
            <mxPoint x="774.7600000000002" y="1850.02" as="sourcePoint" />
            <mxPoint x="804.7600000000002" y="1900.02" as="targetPoint" />
            <Array as="points">
              <mxPoint x="784.7600000000002" y="1860.02" />
              <mxPoint x="784.7600000000002" y="1900.02" />
            </Array>
          </mxGeometry>
        </mxCell>
        <mxCell id="392" style="edgeStyle=orthogonalEdgeStyle;rounded=1;html=1;exitX=1;exitY=0.5;exitDx=0;exitDy=0;strokeWidth=1;fontSize=20;endArrow=none;endFill=0;" parent="1" source="387" edge="1">
          <mxGeometry relative="1" as="geometry">
            <mxPoint x="1375.0231578947369" y="1900.02" as="targetPoint" />
          </mxGeometry>
        </mxCell>
        <mxCell id="387" value="цифра" style="rounded=0;whiteSpace=wrap;html=1;strokeWidth=1;fontSize=12;fillColor=none;glass=0;" parent="1" vertex="1">
          <mxGeometry x="815.2399999999998" y="1890.02" width="49.76" height="20" as="geometry" />
        </mxCell>
        <mxCell id="388" value="&lt;font style=&quot;font-size: 20px;&quot;&gt;-&lt;/font&gt;" style="rounded=0;whiteSpace=wrap;html=1;strokeWidth=1;fontSize=12;fillColor=none;glass=0;" parent="1" vertex="1">
          <mxGeometry x="710.2399999999998" y="1850.02" width="49.76" height="20" as="geometry" />
        </mxCell>
        <mxCell id="389" value="цифра" style="rounded=0;whiteSpace=wrap;html=1;strokeWidth=1;fontSize=12;fillColor=none;glass=0;" parent="1" vertex="1">
          <mxGeometry x="895.2499999999991" y="1850" width="49.76" height="20" as="geometry" />
        </mxCell>
        <mxCell id="390" style="edgeStyle=orthogonalEdgeStyle;rounded=1;html=1;fontSize=12;endArrow=none;endFill=0;exitX=0;exitY=0.5;exitDx=0;exitDy=0;" parent="1" source="389" edge="1">
          <mxGeometry relative="1" as="geometry">
            <mxPoint x="904.7600000000002" y="1900.02" as="targetPoint" />
            <mxPoint x="890.0099999999993" y="1860" as="sourcePoint" />
            <Array as="points">
              <mxPoint x="879.7600000000002" y="1860.02" />
              <mxPoint x="879.7600000000002" y="1900.02" />
            </Array>
          </mxGeometry>
        </mxCell>
        <mxCell id="391" style="edgeStyle=orthogonalEdgeStyle;rounded=1;html=1;fontSize=12;endArrow=none;endFill=0;entryX=1;entryY=0.5;entryDx=0;entryDy=0;" parent="1" target="389" edge="1">
          <mxGeometry relative="1" as="geometry">
            <mxPoint x="985.2499999999991" y="1860" as="targetPoint" />
            <mxPoint x="934.7600000000002" y="1900.02" as="sourcePoint" />
            <Array as="points">
              <mxPoint x="959.7600000000002" y="1900.02" />
              <mxPoint x="959.7600000000002" y="1860.02" />
            </Array>
          </mxGeometry>
        </mxCell>
        <mxCell id="394" value="" style="endArrow=none;html=1;rounded=1;strokeWidth=1;fontSize=50;edgeStyle=orthogonalEdgeStyle;entryX=0;entryY=0.5;entryDx=0;entryDy=0;" parent="1" target="395" edge="1">
          <mxGeometry width="50" height="50" relative="1" as="geometry">
            <mxPoint x="964.7600000000002" y="1900.02" as="sourcePoint" />
            <mxPoint x="994.7600000000002" y="1940.02" as="targetPoint" />
            <Array as="points">
              <mxPoint x="977.7600000000002" y="1900.02" />
              <mxPoint x="977.7600000000002" y="1940.02" />
            </Array>
          </mxGeometry>
        </mxCell>
        <mxCell id="395" value="•" style="rounded=0;whiteSpace=wrap;html=1;strokeWidth=1;fontSize=12;fillColor=none;glass=0;" parent="1" vertex="1">
          <mxGeometry x="1000" y="1930.02" width="49.76" height="20" as="geometry" />
        </mxCell>
        <mxCell id="396" value="" style="endArrow=none;html=1;rounded=1;strokeWidth=1;fontSize=20;curved=1;exitX=1;exitY=0.5;exitDx=0;exitDy=0;" parent="1" source="395" edge="1">
          <mxGeometry width="50" height="50" relative="1" as="geometry">
            <mxPoint x="1034.7600000000002" y="1970.02" as="sourcePoint" />
            <mxPoint x="1084.7600000000002" y="1940.02" as="targetPoint" />
          </mxGeometry>
        </mxCell>
        <mxCell id="397" value="цифра" style="rounded=0;whiteSpace=wrap;html=1;strokeWidth=1;fontSize=12;fillColor=none;glass=0;" parent="1" vertex="1">
          <mxGeometry x="1084.7599999999993" y="1930.02" width="49.76" height="20" as="geometry" />
        </mxCell>
        <mxCell id="398" value="" style="endArrow=none;html=1;rounded=1;strokeWidth=1;fontSize=20;curved=1;exitX=1;exitY=0.5;exitDx=0;exitDy=0;" parent="1" source="397" edge="1">
          <mxGeometry width="50" height="50" relative="1" as="geometry">
            <mxPoint x="1154.7600000000002" y="1970.02" as="sourcePoint" />
            <mxPoint x="1274.7600000000002" y="1940.02" as="targetPoint" />
          </mxGeometry>
        </mxCell>
        <mxCell id="399" style="edgeStyle=orthogonalEdgeStyle;rounded=1;html=1;fontSize=12;endArrow=none;endFill=0;" parent="1" edge="1">
          <mxGeometry relative="1" as="geometry">
            <mxPoint x="1184.7600000000002" y="1980.02" as="targetPoint" />
            <mxPoint x="1184.7600000000002" y="1940.02" as="sourcePoint" />
            <Array as="points">
              <mxPoint x="1164.7600000000002" y="1940.04" />
              <mxPoint x="1164.7600000000002" y="1980.04" />
            </Array>
          </mxGeometry>
        </mxCell>
        <mxCell id="400" style="edgeStyle=orthogonalEdgeStyle;rounded=1;html=1;fontSize=12;endArrow=none;endFill=0;" parent="1" edge="1">
          <mxGeometry relative="1" as="geometry">
            <mxPoint x="1244.7600000000002" y="1940.02" as="targetPoint" />
            <mxPoint x="1234.5200000000004" y="1980.04" as="sourcePoint" />
            <Array as="points">
              <mxPoint x="1259.5200000000004" y="1980.04" />
              <mxPoint x="1259.5200000000004" y="1940.04" />
            </Array>
          </mxGeometry>
        </mxCell>
        <mxCell id="401" value="цифра" style="rounded=0;whiteSpace=wrap;html=1;strokeWidth=1;fontSize=12;fillColor=none;glass=0;" parent="1" vertex="1">
          <mxGeometry x="1184.7599999999993" y="1970.02" width="49.76" height="20" as="geometry" />
        </mxCell>
        <mxCell id="402" value="" style="endArrow=none;html=1;rounded=1;strokeWidth=1;fontSize=50;edgeStyle=orthogonalEdgeStyle;" parent="1" edge="1">
          <mxGeometry width="50" height="50" relative="1" as="geometry">
            <mxPoint x="1314.7600000000002" y="1900.02" as="sourcePoint" />
            <mxPoint x="1274.7600000000002" y="1940.02" as="targetPoint" />
            <Array as="points">
              <mxPoint x="1297.7600000000002" y="1900.02" />
              <mxPoint x="1297.7600000000002" y="1940.02" />
            </Array>
          </mxGeometry>
        </mxCell>
        <mxCell id="403" value="&lt;font style=&quot;font-size: 30px;&quot;&gt;Число&lt;/font&gt;" style="swimlane;whiteSpace=wrap;html=1;rounded=0;glass=0;strokeWidth=1;fontSize=12;fillColor=none;startSize=40;" parent="1" vertex="1">
          <mxGeometry x="549.9999999999998" y="1770" width="864.76" height="280.02" as="geometry" />
        </mxCell>
        <mxCell id="405" value="$ число = [ &quot;-&quot; ] цифра { цифра } [ &quot;.&quot; цифра { цифра } ]." style="text;whiteSpace=wrap;html=1;fontSize=5;fontStyle=2" parent="403" vertex="1">
          <mxGeometry x="400" y="250.01999999999998" width="130" height="20" as="geometry" />
        </mxCell>
        <mxCell id="465" value="Цифры" style="swimlane;whiteSpace=wrap;html=1;rounded=0;strokeWidth=3;fontSize=50;fillColor=none;startSize=70;" parent="1" vertex="1">
          <mxGeometry x="1290" y="250" width="620" height="210" as="geometry" />
        </mxCell>
        <mxCell id="466" value="$ цифра = &quot;0&quot;|&quot;1&quot;|&quot;2&quot;|&quot;3&quot;|&quot;4&quot;|&quot;5&quot;|&quot;6&quot;|&quot;7&quot;|&quot;8&quot;|&quot;9&quot;." style="text;whiteSpace=wrap;html=1;fontSize=5;" parent="465" vertex="1">
          <mxGeometry x="245.23999999999978" y="190" width="140" height="20" as="geometry" />
        </mxCell>
        <mxCell id="472" value="" style="endArrow=none;html=1;fontSize=24;curved=1;jumpStyle=none;entryX=0.5;entryY=1;entryDx=0;entryDy=0;edgeStyle=orthogonalEdgeStyle;rounded=1;" parent="1" edge="1">
          <mxGeometry width="50" height="50" relative="1" as="geometry">
            <mxPoint x="1760.0000000000002" y="645" as="sourcePoint" />
            <mxPoint x="1735.0000000000002" y="615" as="targetPoint" />
            <Array as="points">
              <mxPoint x="1735.0000000000002" y="645" />
            </Array>
          </mxGeometry>
        </mxCell>
        <mxCell id="473" value="" style="endArrow=none;html=1;fontSize=24;rounded=1;" parent="1" edge="1">
          <mxGeometry width="50" height="50" relative="1" as="geometry">
            <mxPoint x="1759.53" y="645" as="sourcePoint" />
            <mxPoint x="1800.0000000000002" y="645.48" as="targetPoint" />
          </mxGeometry>
        </mxCell>
        <mxCell id="474" value="" style="endArrow=none;html=1;fontSize=24;jumpStyle=none;curved=1;rounded=1;" parent="1" edge="1">
          <mxGeometry width="50" height="50" relative="1" as="geometry">
            <mxPoint x="1690.0000000000002" y="565" as="sourcePoint" />
            <mxPoint x="1720.0000000000002" y="565.48" as="targetPoint" />
          </mxGeometry>
        </mxCell>
        <mxCell id="475" value="" style="endArrow=none;html=1;fontSize=24;jumpStyle=none;entryX=0.5;entryY=0;entryDx=0;entryDy=0;edgeStyle=orthogonalEdgeStyle;curved=1;rounded=1;" parent="1" edge="1">
          <mxGeometry width="50" height="50" relative="1" as="geometry">
            <mxPoint x="1710.0000000000002" y="565" as="sourcePoint" />
            <mxPoint x="1735.0000000000002" y="585" as="targetPoint" />
          </mxGeometry>
        </mxCell>
        <mxCell id="476" value="(" style="ellipse;whiteSpace=wrap;html=1;aspect=fixed;fillStyle=auto;rounded=1;" parent="1" vertex="1">
          <mxGeometry x="1720.0000000000002" y="585" width="30" height="30" as="geometry" />
        </mxCell>
        <mxCell id="478" value="&lt;span style=&quot;font-size: 30px;&quot;&gt;Откр_скобка&lt;/span&gt;" style="swimlane;whiteSpace=wrap;html=1;rounded=0;glass=0;strokeWidth=1;fontSize=12;fillColor=none;startSize=40;" parent="1" vertex="1">
          <mxGeometry x="1650.0000000000002" y="510.48" width="200" height="180" as="geometry" />
        </mxCell>
        <mxCell id="480" value="$ открывающая_скобка = &quot;(&quot;." style="text;html=1;align=center;verticalAlign=middle;resizable=0;points=[];autosize=1;strokeColor=none;fillColor=none;fontSize=5;" parent="1" vertex="1">
          <mxGeometry x="1705.0000000000002" y="670.48" width="90" height="20" as="geometry" />
        </mxCell>
        <mxCell id="481" value="" style="endArrow=none;html=1;fontSize=24;curved=1;jumpStyle=none;entryX=0.5;entryY=1;entryDx=0;entryDy=0;edgeStyle=orthogonalEdgeStyle;rounded=1;" parent="1" edge="1">
          <mxGeometry width="50" height="50" relative="1" as="geometry">
            <mxPoint x="1990.0000000000002" y="644.52" as="sourcePoint" />
            <mxPoint x="1965.0000000000002" y="614.52" as="targetPoint" />
            <Array as="points">
              <mxPoint x="1965.0000000000002" y="644.52" />
            </Array>
          </mxGeometry>
        </mxCell>
        <mxCell id="482" value="" style="endArrow=none;html=1;fontSize=24;rounded=1;" parent="1" edge="1">
          <mxGeometry width="50" height="50" relative="1" as="geometry">
            <mxPoint x="1989.53" y="644.52" as="sourcePoint" />
            <mxPoint x="2030.0000000000002" y="645" as="targetPoint" />
          </mxGeometry>
        </mxCell>
        <mxCell id="483" value="" style="endArrow=none;html=1;fontSize=24;jumpStyle=none;curved=1;rounded=1;" parent="1" edge="1">
          <mxGeometry width="50" height="50" relative="1" as="geometry">
            <mxPoint x="1920.0000000000002" y="564.52" as="sourcePoint" />
            <mxPoint x="1950.0000000000002" y="565" as="targetPoint" />
          </mxGeometry>
        </mxCell>
        <mxCell id="484" value="" style="endArrow=none;html=1;fontSize=24;jumpStyle=none;entryX=0.5;entryY=0;entryDx=0;entryDy=0;edgeStyle=orthogonalEdgeStyle;curved=1;rounded=1;" parent="1" edge="1">
          <mxGeometry width="50" height="50" relative="1" as="geometry">
            <mxPoint x="1940.0000000000002" y="564.52" as="sourcePoint" />
            <mxPoint x="1965.0000000000002" y="584.52" as="targetPoint" />
          </mxGeometry>
        </mxCell>
        <mxCell id="485" value=")" style="ellipse;whiteSpace=wrap;html=1;aspect=fixed;fillStyle=auto;rounded=1;" parent="1" vertex="1">
          <mxGeometry x="1950.0000000000002" y="584.52" width="30" height="30" as="geometry" />
        </mxCell>
        <mxCell id="486" value="&lt;span style=&quot;font-size: 30px;&quot;&gt;Закр_скобка&lt;/span&gt;" style="swimlane;whiteSpace=wrap;html=1;rounded=0;glass=0;strokeWidth=1;fontSize=12;fillColor=none;startSize=40;" parent="1" vertex="1">
          <mxGeometry x="1880.0000000000002" y="510" width="200" height="180" as="geometry" />
        </mxCell>
        <mxCell id="487" value="$ закрывающая_скобка = &quot;)&quot;." style="text;html=1;align=center;verticalAlign=middle;resizable=0;points=[];autosize=1;strokeColor=none;fillColor=none;fontSize=5;" parent="1" vertex="1">
          <mxGeometry x="1935.0000000000002" y="670" width="90" height="20" as="geometry" />
        </mxCell>
        <mxCell id="488" value="Функции" style="swimlane;whiteSpace=wrap;html=1;rounded=0;strokeWidth=3;fontSize=50;fillColor=none;startSize=70;" parent="1" vertex="1">
          <mxGeometry x="1295.2400000000002" y="805" width="300" height="220" as="geometry" />
        </mxCell>
        <mxCell id="489" value="+" style="ellipse;whiteSpace=wrap;html=1;aspect=fixed;fillStyle=auto;rounded=1;" parent="488" vertex="1">
          <mxGeometry x="108.76" y="113.19999999999982" width="30" height="30" as="geometry" />
        </mxCell>
        <mxCell id="490" value="cos" style="ellipse;whiteSpace=wrap;html=1;aspect=fixed;fillStyle=auto;rounded=1;" parent="488" vertex="1">
          <mxGeometry x="148.76" y="113.19999999999982" width="30" height="30" as="geometry" />
        </mxCell>
        <mxCell id="493" value="" style="endArrow=none;html=1;fontSize=24;jumpStyle=none;curved=1;rounded=1;" parent="488" edge="1">
          <mxGeometry width="50" height="50" relative="1" as="geometry">
            <mxPoint x="78.76" y="93.19999999999982" as="sourcePoint" />
            <mxPoint x="139.51999999999975" y="93" as="targetPoint" />
          </mxGeometry>
        </mxCell>
        <mxCell id="496" value="" style="endArrow=none;html=1;fontSize=24;jumpStyle=none;entryX=0.5;entryY=0;entryDx=0;entryDy=0;edgeStyle=orthogonalEdgeStyle;curved=1;rounded=1;" parent="488" edge="1">
          <mxGeometry width="50" height="50" relative="1" as="geometry">
            <mxPoint x="138.76" y="93.19999999999982" as="sourcePoint" />
            <mxPoint x="163.76" y="113.19999999999982" as="targetPoint" />
          </mxGeometry>
        </mxCell>
        <mxCell id="497" value="" style="endArrow=none;html=1;fontSize=24;jumpStyle=none;entryX=0.5;entryY=0;entryDx=0;entryDy=0;edgeStyle=orthogonalEdgeStyle;curved=1;rounded=1;" parent="488" edge="1">
          <mxGeometry width="50" height="50" relative="1" as="geometry">
            <mxPoint x="98.76" y="93.19999999999982" as="sourcePoint" />
            <mxPoint x="123.76" y="113.19999999999982" as="targetPoint" />
          </mxGeometry>
        </mxCell>
        <mxCell id="500" value="" style="endArrow=none;html=1;fontSize=24;curved=1;jumpStyle=none;entryX=0.5;entryY=1;entryDx=0;entryDy=0;edgeStyle=orthogonalEdgeStyle;rounded=1;" parent="488" edge="1">
          <mxGeometry width="50" height="50" relative="1" as="geometry">
            <mxPoint x="188.76" y="173.19999999999982" as="sourcePoint" />
            <mxPoint x="163.76" y="143.19999999999982" as="targetPoint" />
          </mxGeometry>
        </mxCell>
        <mxCell id="501" value="" style="endArrow=none;html=1;fontSize=24;curved=1;jumpStyle=none;entryX=0.5;entryY=1;entryDx=0;entryDy=0;edgeStyle=orthogonalEdgeStyle;rounded=1;" parent="488" edge="1">
          <mxGeometry width="50" height="50" relative="1" as="geometry">
            <mxPoint x="148.76" y="173.19999999999982" as="sourcePoint" />
            <mxPoint x="123.76" y="143.19999999999982" as="targetPoint" />
            <Array as="points">
              <mxPoint x="123.76" y="173.19999999999982" />
            </Array>
          </mxGeometry>
        </mxCell>
        <mxCell id="502" value="" style="endArrow=none;html=1;fontSize=24;rounded=1;" parent="488" edge="1">
          <mxGeometry width="50" height="50" relative="1" as="geometry">
            <mxPoint x="148.28999999999974" y="173.19999999999982" as="sourcePoint" />
            <mxPoint x="203.51999999999975" y="173" as="targetPoint" />
          </mxGeometry>
        </mxCell>
        <mxCell id="503" value="$ функция = &quot;cos&quot; | &quot;sin&quot;." style="text;whiteSpace=wrap;html=1;fontSize=5;" parent="488" vertex="1">
          <mxGeometry x="120" y="190" width="80" height="20" as="geometry" />
        </mxCell>
        <mxCell id="505" value="" style="endArrow=none;html=1;fontSize=24;jumpStyle=none;entryX=0.5;entryY=0;entryDx=0;entryDy=0;edgeStyle=orthogonalEdgeStyle;curved=1;rounded=1;" parent="488" edge="1">
          <mxGeometry width="50" height="50" relative="1" as="geometry">
            <mxPoint x="98.76" y="93.19999999999982" as="sourcePoint" />
            <mxPoint x="123.76" y="113.19999999999982" as="targetPoint" />
          </mxGeometry>
        </mxCell>
        <mxCell id="506" value="sin" style="ellipse;whiteSpace=wrap;html=1;aspect=fixed;fillStyle=auto;rounded=1;" parent="488" vertex="1">
          <mxGeometry x="108.76" y="113.19999999999982" width="30" height="30" as="geometry" />
        </mxCell>
        <mxCell id="515" value="" style="endArrow=none;html=1;rounded=1;fontSize=5;" parent="1" target="517" edge="1">
          <mxGeometry width="50" height="50" relative="1" as="geometry">
            <mxPoint x="979.76" y="1610" as="sourcePoint" />
            <mxPoint x="1039.76" y="1610" as="targetPoint" />
          </mxGeometry>
        </mxCell>
        <mxCell id="516" style="edgeStyle=none;rounded=1;html=1;exitX=1;exitY=0.5;exitDx=0;exitDy=0;fontSize=12;endArrow=none;endFill=0;strokeWidth=1;" parent="1" source="517" edge="1">
          <mxGeometry relative="1" as="geometry">
            <mxPoint x="1300" y="1610" as="targetPoint" />
          </mxGeometry>
        </mxCell>
        <mxCell id="517" value="терм" style="rounded=0;whiteSpace=wrap;html=1;strokeWidth=1;fontSize=12;fillColor=none;glass=0;" parent="1" vertex="1">
          <mxGeometry x="1035.2399999999996" y="1600" width="49.76" height="20" as="geometry" />
        </mxCell>
        <mxCell id="520" value="оператор" style="rounded=0;whiteSpace=wrap;html=1;strokeWidth=1;fontSize=12;fillColor=none;glass=0;" parent="1" vertex="1">
          <mxGeometry x="1115.26" y="1570" width="55" height="20" as="geometry" />
        </mxCell>
        <mxCell id="521" style="edgeStyle=orthogonalEdgeStyle;rounded=1;html=1;fontSize=12;endArrow=none;endFill=0;exitX=0;exitY=0.5;exitDx=0;exitDy=0;" parent="1" source="520" edge="1">
          <mxGeometry relative="1" as="geometry">
            <mxPoint x="1130.02" y="1610" as="targetPoint" />
            <mxPoint x="1110.02" y="1580" as="sourcePoint" />
            <Array as="points">
              <mxPoint x="1100.02" y="1580" />
              <mxPoint x="1100.02" y="1610" />
            </Array>
          </mxGeometry>
        </mxCell>
        <mxCell id="523" style="edgeStyle=orthogonalEdgeStyle;rounded=1;html=1;fontSize=12;endArrow=none;endFill=0;entryX=1;entryY=0.5;entryDx=0;entryDy=0;" parent="1" target="525" edge="1">
          <mxGeometry relative="1" as="geometry">
            <mxPoint x="1255.5" y="1575" as="targetPoint" />
            <mxPoint x="1260.26" y="1610" as="sourcePoint" />
            <Array as="points">
              <mxPoint x="1270.26" y="1610" />
              <mxPoint x="1270.26" y="1580" />
            </Array>
          </mxGeometry>
        </mxCell>
        <mxCell id="524" value="" style="endArrow=none;html=1;rounded=1;strokeWidth=1;fontSize=5;curved=1;exitX=1;exitY=0.5;exitDx=0;exitDy=0;" parent="1" source="520" edge="1">
          <mxGeometry width="50" height="50" relative="1" as="geometry">
            <mxPoint x="1190.26" y="1610" as="sourcePoint" />
            <mxPoint x="1200.26" y="1580" as="targetPoint" />
          </mxGeometry>
        </mxCell>
        <mxCell id="525" value="терм" style="rounded=0;whiteSpace=wrap;html=1;strokeWidth=1;fontSize=12;fillColor=none;glass=0;" parent="1" vertex="1">
          <mxGeometry x="1200.5" y="1570" width="49.76" height="20" as="geometry" />
        </mxCell>
        <mxCell id="527" value="&lt;font style=&quot;font-size: 30px;&quot;&gt;Выражение&lt;/font&gt;" style="swimlane;whiteSpace=wrap;html=1;rounded=0;glass=0;strokeWidth=1;fontSize=12;fillColor=none;startSize=40;" parent="1" vertex="1">
          <mxGeometry x="965.24" y="1510" width="374.76" height="180" as="geometry" />
        </mxCell>
        <mxCell id="528" value="$ выражение = терм { оператор терм }." style="text;whiteSpace=wrap;html=1;fontSize=5;fontStyle=2" parent="527" vertex="1">
          <mxGeometry x="132.38" y="160" width="110" height="20" as="geometry" />
        </mxCell>
        <mxCell id="529" value="Терм" style="swimlane;whiteSpace=wrap;html=1;rounded=0;strokeWidth=3;fontSize=50;fillColor=none;startSize=70;" parent="1" vertex="1">
          <mxGeometry x="1675.24" y="805" width="534.76" height="220" as="geometry" />
        </mxCell>
        <mxCell id="534" value="" style="endArrow=none;html=1;fontSize=24;jumpStyle=none;curved=1;rounded=1;" parent="529" edge="1">
          <mxGeometry width="50" height="50" relative="1" as="geometry">
            <mxPoint x="50" y="89.19999999999982" as="sourcePoint" />
            <mxPoint x="190" y="89.19999999999982" as="targetPoint" />
          </mxGeometry>
        </mxCell>
        <mxCell id="543" value="" style="endArrow=none;html=1;fontSize=24;rounded=1;" parent="529" edge="1">
          <mxGeometry width="50" height="50" relative="1" as="geometry">
            <mxPoint x="114.75999999999975" y="164.99999999999983" as="sourcePoint" />
            <mxPoint x="514.76" y="165" as="targetPoint" />
          </mxGeometry>
        </mxCell>
        <mxCell id="544" value="$ терм = идентификатор | число | функция_вызов | выражение_в_скобках." style="text;whiteSpace=wrap;html=1;fontSize=5;" parent="529" vertex="1">
          <mxGeometry x="177.38" y="190" width="180" height="20" as="geometry" />
        </mxCell>
        <mxCell id="545" value="" style="endArrow=none;html=1;fontSize=24;jumpStyle=none;curved=1;rounded=1;" parent="529" edge="1">
          <mxGeometry width="50" height="50" relative="1" as="geometry">
            <mxPoint x="50" y="89.19999999999982" as="sourcePoint" />
            <mxPoint x="405.4617543859649" y="89" as="targetPoint" />
          </mxGeometry>
        </mxCell>
        <mxCell id="546" value="" style="endArrow=none;html=1;fontSize=24;jumpStyle=none;entryX=0.5;entryY=0;entryDx=0;entryDy=0;edgeStyle=orthogonalEdgeStyle;rounded=1;" parent="529" target="549" edge="1">
          <mxGeometry width="50" height="50" relative="1" as="geometry">
            <mxPoint x="70" y="89.19999999999982" as="sourcePoint" />
            <mxPoint x="95" y="109.19999999999982" as="targetPoint" />
            <Array as="points">
              <mxPoint x="92" y="89" />
              <mxPoint x="92" y="115" />
            </Array>
          </mxGeometry>
        </mxCell>
        <mxCell id="549" value="идентификатор" style="rounded=0;whiteSpace=wrap;html=1;strokeWidth=1;fontSize=12;fillColor=none;glass=0;" parent="529" vertex="1">
          <mxGeometry x="44.760000000000005" y="115" width="95.24" height="20" as="geometry" />
        </mxCell>
        <mxCell id="551" value="" style="endArrow=none;html=1;fontSize=24;jumpStyle=none;entryX=0.5;entryY=0;entryDx=0;entryDy=0;edgeStyle=orthogonalEdgeStyle;rounded=1;" parent="529" edge="1">
          <mxGeometry width="50" height="50" relative="1" as="geometry">
            <mxPoint x="120" y="165" as="sourcePoint" />
            <mxPoint x="95" y="135.00392156862767" as="targetPoint" />
            <Array as="points">
              <mxPoint x="95" y="165" />
            </Array>
          </mxGeometry>
        </mxCell>
        <mxCell id="552" value="число" style="rounded=0;whiteSpace=wrap;html=1;strokeWidth=1;fontSize=12;fillColor=none;glass=0;" parent="529" vertex="1">
          <mxGeometry x="162" y="115" width="49.76" height="20" as="geometry" />
        </mxCell>
        <mxCell id="553" value="" style="endArrow=none;html=1;fontSize=24;jumpStyle=none;entryX=0.5;entryY=0;entryDx=0;entryDy=0;edgeStyle=orthogonalEdgeStyle;rounded=1;" parent="529" edge="1">
          <mxGeometry width="50" height="50" relative="1" as="geometry">
            <mxPoint x="164.76000000000022" y="89.17999999999984" as="sourcePoint" />
            <mxPoint x="187.13999999999987" y="114.98000000000002" as="targetPoint" />
            <Array as="points">
              <mxPoint x="186.76" y="88.98000000000002" />
              <mxPoint x="186.76" y="114.98000000000002" />
            </Array>
          </mxGeometry>
        </mxCell>
        <mxCell id="554" value="" style="endArrow=none;html=1;fontSize=24;jumpStyle=none;entryX=0.5;entryY=0;entryDx=0;entryDy=0;edgeStyle=orthogonalEdgeStyle;rounded=1;" parent="529" edge="1">
          <mxGeometry width="50" height="50" relative="1" as="geometry">
            <mxPoint x="213" y="165" as="sourcePoint" />
            <mxPoint x="186" y="135.00392156862767" as="targetPoint" />
            <Array as="points">
              <mxPoint x="207" y="165" />
              <mxPoint x="185" y="165" />
              <mxPoint x="185" y="135" />
            </Array>
          </mxGeometry>
        </mxCell>
        <mxCell id="555" value="функция_вызов" style="rounded=0;whiteSpace=wrap;html=1;strokeWidth=1;fontSize=12;fillColor=none;glass=0;" parent="529" vertex="1">
          <mxGeometry x="224.76" y="115" width="95.24" height="20" as="geometry" />
        </mxCell>
        <mxCell id="556" value="" style="endArrow=none;html=1;fontSize=24;jumpStyle=none;entryX=0.5;entryY=0;entryDx=0;entryDy=0;edgeStyle=orthogonalEdgeStyle;rounded=1;" parent="529" edge="1">
          <mxGeometry width="50" height="50" relative="1" as="geometry">
            <mxPoint x="261.1900000000003" y="89.17999999999984" as="sourcePoint" />
            <mxPoint x="283.56999999999994" y="114.98000000000002" as="targetPoint" />
            <Array as="points">
              <mxPoint x="283.19000000000005" y="88.98000000000002" />
              <mxPoint x="283.19000000000005" y="114.98000000000002" />
            </Array>
          </mxGeometry>
        </mxCell>
        <mxCell id="557" value="" style="endArrow=none;html=1;fontSize=24;jumpStyle=none;entryX=0.5;entryY=0;entryDx=0;entryDy=0;edgeStyle=orthogonalEdgeStyle;rounded=1;" parent="529" edge="1">
          <mxGeometry width="50" height="50" relative="1" as="geometry">
            <mxPoint x="311.79999999999995" y="165" as="sourcePoint" />
            <mxPoint x="284.79999999999995" y="135.00392156862767" as="targetPoint" />
            <Array as="points">
              <mxPoint x="305.79999999999995" y="165" />
              <mxPoint x="283.79999999999995" y="165" />
              <mxPoint x="283.79999999999995" y="135" />
            </Array>
          </mxGeometry>
        </mxCell>
        <mxCell id="558" value="выражение_в_скобках" style="rounded=0;whiteSpace=wrap;html=1;strokeWidth=1;fontSize=12;fillColor=none;glass=0;" parent="529" vertex="1">
          <mxGeometry x="334.76" y="115" width="135.24" height="20" as="geometry" />
        </mxCell>
        <mxCell id="559" value="" style="endArrow=none;html=1;fontSize=24;jumpStyle=none;entryX=0.5;entryY=0;entryDx=0;entryDy=0;edgeStyle=orthogonalEdgeStyle;rounded=1;" parent="529" edge="1">
          <mxGeometry width="50" height="50" relative="1" as="geometry">
            <mxPoint x="391.1900000000003" y="89.17999999999984" as="sourcePoint" />
            <mxPoint x="413.56999999999994" y="114.98000000000002" as="targetPoint" />
            <Array as="points">
              <mxPoint x="413.1900000000003" y="88.98000000000002" />
              <mxPoint x="413.1900000000003" y="114.98000000000002" />
            </Array>
          </mxGeometry>
        </mxCell>
        <mxCell id="560" value="" style="endArrow=none;html=1;fontSize=24;jumpStyle=none;entryX=0.5;entryY=0;entryDx=0;entryDy=0;edgeStyle=orthogonalEdgeStyle;rounded=1;" parent="529" edge="1">
          <mxGeometry width="50" height="50" relative="1" as="geometry">
            <mxPoint x="441.79999999999995" y="165" as="sourcePoint" />
            <mxPoint x="414.79999999999995" y="135.00392156862767" as="targetPoint" />
            <Array as="points">
              <mxPoint x="435.79999999999995" y="165" />
              <mxPoint x="413.79999999999995" y="165" />
              <mxPoint x="413.79999999999995" y="135" />
            </Array>
          </mxGeometry>
        </mxCell>
        <mxCell id="561" value="&lt;font style=&quot;font-size: 30px;&quot;&gt;Функция_вызов&lt;/font&gt;" style="swimlane;whiteSpace=wrap;html=1;rounded=0;glass=0;strokeWidth=1;fontSize=12;fillColor=none;startSize=40;" parent="1" vertex="1">
          <mxGeometry x="1452.86" y="1510" width="387.14" height="180" as="geometry" />
        </mxCell>
        <mxCell id="562" value="$ функция_вызов = функция&amp;nbsp; выражение_в_скобках." style="text;whiteSpace=wrap;html=1;fontSize=5;fontStyle=2" parent="561" vertex="1">
          <mxGeometry x="127.35999999999999" y="150" width="132.43" height="20" as="geometry" />
        </mxCell>
        <mxCell id="563" value="" style="endArrow=none;html=1;rounded=1;fontSize=5;" parent="561" target="565" edge="1">
          <mxGeometry width="50" height="50" relative="1" as="geometry">
            <mxPoint x="34.75999999999999" y="100" as="sourcePoint" />
            <mxPoint x="94.75999999999999" y="100" as="targetPoint" />
          </mxGeometry>
        </mxCell>
        <mxCell id="565" value="функция" style="rounded=0;whiteSpace=wrap;html=1;strokeWidth=1;fontSize=12;fillColor=none;glass=0;" parent="561" vertex="1">
          <mxGeometry x="90.24" y="90" width="59.76" height="20" as="geometry" />
        </mxCell>
        <mxCell id="567" value="выражение_в_скобках" style="rounded=0;whiteSpace=wrap;html=1;strokeWidth=1;fontSize=12;fillColor=none;glass=0;" parent="561" vertex="1">
          <mxGeometry x="174.76" y="90" width="135.24" height="20" as="geometry" />
        </mxCell>
        <mxCell id="572" value="" style="endArrow=none;html=1;rounded=1;strokeWidth=1;fontSize=5;entryX=0;entryY=0.5;entryDx=0;entryDy=0;exitX=1;exitY=0.5;exitDx=0;exitDy=0;" parent="561" edge="1">
          <mxGeometry width="50" height="50" relative="1" as="geometry">
            <mxPoint x="310.0000000000002" y="99.65999999999995" as="sourcePoint" />
            <mxPoint x="344.76" y="99.65999999999995" as="targetPoint" />
          </mxGeometry>
        </mxCell>
        <mxCell id="566" value="" style="endArrow=none;html=1;rounded=1;strokeWidth=1;fontSize=5;exitX=1;exitY=0.5;exitDx=0;exitDy=0;entryX=0;entryY=0.5;entryDx=0;entryDy=0;" parent="561" source="565" target="567" edge="1">
          <mxGeometry width="50" height="50" relative="1" as="geometry">
            <mxPoint x="197.1400000000001" y="100" as="sourcePoint" />
            <mxPoint x="157.1400000000001" y="100" as="targetPoint" />
          </mxGeometry>
        </mxCell>
        <mxCell id="573" value="&lt;span style=&quot;font-size: 30px;&quot;&gt;Выражение_в_скобках&lt;/span&gt;" style="swimlane;whiteSpace=wrap;html=1;rounded=0;glass=0;strokeWidth=1;fontSize=12;fillColor=none;startSize=40;" parent="1" vertex="1">
          <mxGeometry x="1900" y="1510" width="590" height="180" as="geometry" />
        </mxCell>
        <mxCell id="574" value="$ выражение_в_скобках = открывающая_скобка выражение закрывающая_скобка." style="text;whiteSpace=wrap;html=1;fontSize=5;fontStyle=2" parent="573" vertex="1">
          <mxGeometry x="222.38" y="150" width="210" height="20" as="geometry" />
        </mxCell>
        <mxCell id="577" value="открывающая_скобка" style="rounded=0;whiteSpace=wrap;html=1;strokeWidth=1;fontSize=12;fillColor=none;glass=0;" parent="573" vertex="1">
          <mxGeometry x="74.75999999999999" y="90" width="135.24" height="20" as="geometry" />
        </mxCell>
        <mxCell id="578" value="выражение" style="rounded=0;whiteSpace=wrap;html=1;strokeWidth=1;fontSize=12;fillColor=none;glass=0;" parent="573" vertex="1">
          <mxGeometry x="244.76" y="90" width="75.24" height="20" as="geometry" />
        </mxCell>
        <mxCell id="579" value="" style="endArrow=none;html=1;rounded=1;strokeWidth=1;fontSize=5;entryX=0;entryY=0.5;entryDx=0;entryDy=0;exitX=1;exitY=0.5;exitDx=0;exitDy=0;" parent="573" source="577" target="578" edge="1">
          <mxGeometry width="50" height="50" relative="1" as="geometry">
            <mxPoint x="134.76" y="160" as="sourcePoint" />
            <mxPoint x="184.76" y="110" as="targetPoint" />
          </mxGeometry>
        </mxCell>
        <mxCell id="580" value="" style="endArrow=none;html=1;rounded=1;strokeWidth=1;fontSize=5;entryX=0;entryY=0.5;entryDx=0;entryDy=0;exitX=1;exitY=0.5;exitDx=0;exitDy=0;" parent="573" edge="1">
          <mxGeometry width="50" height="50" relative="1" as="geometry">
            <mxPoint x="320.0000000000002" y="99.79999999999995" as="sourcePoint" />
            <mxPoint x="354.76" y="99.79999999999995" as="targetPoint" />
          </mxGeometry>
        </mxCell>
        <mxCell id="581" value="закрывающая_скобка" style="rounded=0;whiteSpace=wrap;html=1;strokeWidth=1;fontSize=12;fillColor=none;glass=0;" parent="573" vertex="1">
          <mxGeometry x="354.76" y="90" width="135.24" height="20" as="geometry" />
        </mxCell>
        <mxCell id="582" value="" style="endArrow=none;html=1;rounded=1;strokeWidth=1;fontSize=5;entryX=0;entryY=0.5;entryDx=0;entryDy=0;exitX=1;exitY=0.5;exitDx=0;exitDy=0;" parent="573" edge="1">
          <mxGeometry width="50" height="50" relative="1" as="geometry">
            <mxPoint x="490.0000000000002" y="99.79999999999995" as="sourcePoint" />
            <mxPoint x="524.76" y="99.79999999999995" as="targetPoint" />
          </mxGeometry>
        </mxCell>
        <mxCell id="584" value="" style="endArrow=none;html=1;rounded=1;strokeWidth=1;fontSize=5;entryX=0;entryY=0.5;entryDx=0;entryDy=0;exitX=1;exitY=0.5;exitDx=0;exitDy=0;" parent="573" edge="1">
          <mxGeometry width="50" height="50" relative="1" as="geometry">
            <mxPoint x="39.999999999999545" y="99.66000000000008" as="sourcePoint" />
            <mxPoint x="74.76000000000022" y="99.66000000000008" as="targetPoint" />
          </mxGeometry>
        </mxCell>
        <mxCell id="592" value="&lt;font style=&quot;font-size: 30px;&quot;&gt;Инструкция&lt;/font&gt;" style="swimlane;whiteSpace=wrap;html=1;rounded=0;glass=0;strokeWidth=1;fontSize=12;fillColor=none;startSize=40;" parent="1" vertex="1">
          <mxGeometry x="1485.24" y="1770" width="254.76" height="180" as="geometry" />
        </mxCell>
        <mxCell id="593" value="$ инструкция = выражение &quot;;&quot;." style="text;whiteSpace=wrap;html=1;fontSize=5;fontStyle=2" parent="592" vertex="1">
          <mxGeometry x="89.76" y="150" width="75.24" height="20" as="geometry" />
        </mxCell>
        <mxCell id="594" value="" style="endArrow=none;html=1;rounded=1;fontSize=5;" parent="592" target="595" edge="1">
          <mxGeometry width="50" height="50" relative="1" as="geometry">
            <mxPoint x="24.75999999999999" y="100" as="sourcePoint" />
            <mxPoint x="74.75999999999999" y="100" as="targetPoint" />
          </mxGeometry>
        </mxCell>
        <mxCell id="595" value="выражение" style="rounded=0;whiteSpace=wrap;html=1;strokeWidth=1;fontSize=12;fillColor=none;glass=0;" parent="592" vertex="1">
          <mxGeometry x="70" y="90" width="70" height="20" as="geometry" />
        </mxCell>
        <mxCell id="600" value="&lt;font style=&quot;font-size: 15px;&quot;&gt;;&lt;/font&gt;" style="ellipse;whiteSpace=wrap;html=1;aspect=fixed;rounded=0;glass=0;strokeWidth=1;fontSize=5;fillColor=none;" parent="592" vertex="1">
          <mxGeometry x="164.76" y="81.32" width="37.36" height="37.36" as="geometry" />
        </mxCell>
        <mxCell id="601" value="" style="endArrow=none;html=1;rounded=1;strokeWidth=1;fontSize=5;exitX=1;exitY=0.5;exitDx=0;exitDy=0;" parent="592" edge="1">
          <mxGeometry width="50" height="50" relative="1" as="geometry">
            <mxPoint x="202.12000000000012" y="99.79999999999995" as="sourcePoint" />
            <mxPoint x="226.87999999999988" y="99.79999999999995" as="targetPoint" />
          </mxGeometry>
        </mxCell>
        <mxCell id="599" value="" style="endArrow=none;html=1;rounded=1;strokeWidth=1;fontSize=5;exitX=1;exitY=0.5;exitDx=0;exitDy=0;" parent="1" source="595" edge="1">
          <mxGeometry width="50" height="50" relative="1" as="geometry">
            <mxPoint x="1660" y="1920" as="sourcePoint" />
            <mxPoint x="1650" y="1870" as="targetPoint" />
          </mxGeometry>
        </mxCell>
        <mxCell id="602" value="" style="endArrow=none;html=1;rounded=1;fontSize=5;" parent="1" target="604" edge="1">
          <mxGeometry width="50" height="50" relative="1" as="geometry">
            <mxPoint x="1835.0000000000002" y="1875.02" as="sourcePoint" />
            <mxPoint x="1895" y="1875.02" as="targetPoint" />
          </mxGeometry>
        </mxCell>
        <mxCell id="603" style="edgeStyle=none;rounded=1;html=1;exitX=1;exitY=0.5;exitDx=0;exitDy=0;fontSize=12;endArrow=none;endFill=0;strokeWidth=1;" parent="1" source="604" edge="1">
          <mxGeometry relative="1" as="geometry">
            <mxPoint x="2115" y="1875.02" as="targetPoint" />
          </mxGeometry>
        </mxCell>
        <mxCell id="604" value="инструкция" style="rounded=0;whiteSpace=wrap;html=1;strokeWidth=1;fontSize=12;fillColor=none;glass=0;" parent="1" vertex="1">
          <mxGeometry x="1890.48" y="1865.02" width="79.52" height="20" as="geometry" />
        </mxCell>
        <mxCell id="607" value="инструкция" style="rounded=0;whiteSpace=wrap;html=1;strokeWidth=1;fontSize=12;fillColor=none;glass=0;" parent="1" vertex="1">
          <mxGeometry x="2010" y="1835.02" width="70" height="20" as="geometry" />
        </mxCell>
        <mxCell id="608" style="edgeStyle=orthogonalEdgeStyle;rounded=1;html=1;fontSize=12;endArrow=none;endFill=0;exitX=0;exitY=0.5;exitDx=0;exitDy=0;" parent="1" source="607" edge="1">
          <mxGeometry relative="1" as="geometry">
            <mxPoint x="2025.0000000000002" y="1875.02" as="targetPoint" />
            <mxPoint x="2005" y="1845.02" as="sourcePoint" />
            <Array as="points">
              <mxPoint x="2000" y="1845" />
              <mxPoint x="2000" y="1875" />
            </Array>
          </mxGeometry>
        </mxCell>
        <mxCell id="610" style="edgeStyle=orthogonalEdgeStyle;rounded=1;html=1;fontSize=12;endArrow=none;endFill=0;entryX=1;entryY=0.5;entryDx=0;entryDy=0;" parent="1" target="607" edge="1">
          <mxGeometry relative="1" as="geometry">
            <mxPoint x="2100.24" y="1845.02" as="targetPoint" />
            <mxPoint x="2055" y="1875.02" as="sourcePoint" />
            <Array as="points">
              <mxPoint x="2090" y="1875" />
              <mxPoint x="2090" y="1845" />
            </Array>
          </mxGeometry>
        </mxCell>
        <mxCell id="611" value="&lt;span style=&quot;font-size: 30px;&quot;&gt;Программа&lt;/span&gt;" style="swimlane;whiteSpace=wrap;html=1;rounded=0;glass=0;strokeWidth=1;fontSize=12;fillColor=none;startSize=40;" parent="1" vertex="1">
          <mxGeometry x="1815" y="1770.02" width="330" height="180" as="geometry" />
        </mxCell>
        <mxCell id="612" value="$ программа = инструкция { инструкция }." style="text;whiteSpace=wrap;html=1;fontSize=5;fontStyle=2" parent="611" vertex="1">
          <mxGeometry x="110" y="159.98" width="110" height="20" as="geometry" />
        </mxCell>
      </root>
    </mxGraphModel>
  </diagram>
</mxfile>
